<svg width="408" height="395" viewBox="0 0 408 395" fill="none" xmlns="http://www.w3.org/2000/svg">
<path d="M301.288 177.036C301.288 201.071 291.647 224.103 274.525 240.976C257.402 257.849 234.227 267.156 210.186 266.813C160.652 266.12 120.735 224.818 121.671 175.305C122.324 141.103 142.362 110.243 173.346 95.7219C181.145 92.0629 186.16 83.2671 186.16 74.6543V75.6548L186.227 74.3642L238.998 74.3359L238.985 76.7197C239.004 85.1583 243.807 92.8568 251.379 96.5868C281.956 111.744 301.296 142.918 301.288 177.036Z" fill="#C4A16A"/>
<path fill-rule="evenodd" clip-rule="evenodd" d="M223.651 57.601C233.863 58.8074 241.931 61.5591 242.173 64.3402C242.177 64.3904 242.171 74.5905 242.171 74.5905C242.171 78.6794 238.855 81.994 234.765 81.994C230.681 81.994 227.368 78.6888 227.359 74.608C227.314 78.6579 224.015 81.927 219.953 81.927C215.883 81.927 212.58 78.6454 212.547 74.5848C212.546 77.2232 211.137 79.6614 208.851 80.982C206.561 82.3054 203.737 82.3051 201.447 80.9812C199.157 79.6573 197.748 77.2114 197.753 74.5666H197.738C197.713 78.6547 194.388 81.954 190.298 81.9483C186.209 81.9426 182.893 78.634 182.879 74.5458C182.879 74.5458 182.834 64.3508 182.835 64.3115C182.886 61.8696 191.56 58.9398 202.12 57.6418C200.054 53.2388 200.881 48.0215 204.208 44.4732C207.535 40.9249 212.69 39.7625 217.219 41.5393C221.748 43.3161 224.736 47.6731 224.76 52.5364C224.758 54.2846 224.379 56.0118 223.651 57.601ZM205.339 57.3051C207.814 57.0886 210.351 56.9655 212.873 56.9655C215.429 56.9655 217.97 57.0784 220.429 57.2808C222.735 53.5555 221.978 48.7058 218.647 45.8594C215.316 43.0131 210.406 43.021 207.084 45.8781C203.762 48.7351 203.021 53.5873 205.339 57.3051Z" fill="#121214"/>
<path d="M388.903 323.69C388.151 323.845 387.409 324.045 386.681 324.291C359.74 333.475 332.033 340.242 303.891 344.511C300.618 345.021 296.274 345.221 292.801 346.412C289.492 338.669 286.755 330.693 284.614 322.55C281.452 310.174 277.919 301.299 277.638 280.649C277.638 280.649 276.677 261.289 286.446 234.295C288.508 228.632 291.68 219.528 293.432 213.755C295.791 205.704 297.271 197.422 297.845 189.052C298.366 175.605 296.404 164.43 297.375 151.003C297.455 149.942 293.101 135.875 282.843 122.559L281.952 121.378C280.27 116.486 278.799 110.482 278.919 105.32C279.089 98.3663 282.833 95.0447 287.977 94.5944C291.75 94.2743 296.464 97.2758 299.507 99.5269C328.311 120.818 347.788 156.356 364.282 190.143C370.998 203.91 377.704 217.947 380.316 233.045C381.867 242.009 383.829 252.524 384.219 261.609C385.11 282.6 384.98 303.67 388.903 323.69Z" fill="#F9E3C5"/>
<path d="M346.143 225.341C346.35 215.442 344.246 202.98 341.428 192.087C336.551 173.238 328.771 150.111 320.091 138.373C316.154 133.05 310.808 127.396 305.006 128.861C300.677 129.955 299.021 133.161 298.206 137.575C297.554 141.773 297.272 146.02 297.363 150.267" stroke="#121214" stroke-width="2" stroke-linecap="round"/>
<path d="M287.852 360.143C286.972 356.679 286.052 352.776 287.983 349.768C290.818 345.353 298.702 345.326 303.887 344.513C332.031 340.241 359.739 333.473 386.682 324.288C388.339 323.575 390.175 323.387 391.943 323.748C394.214 324.44 395.541 326.742 396.558 328.887C400.806 337.861 403.546 347.473 404.667 357.338C405.227 362.279 403.187 371.852 390.436 376.611C369.627 384.377 319.345 395.916 312.797 394.942C307.106 394.096 303.17 390.68 298.236 382.829C298.236 382.829 290.455 370.396 287.852 360.143Z" fill="#CD3C32"/>
<path d="M129.673 139.668C129.643 139.718 129.593 142.489 129.633 143.63C130.013 157.086 128.702 171.754 129.082 185.201C129.576 193.577 130.972 201.876 133.246 209.953C134.947 215.736 138.44 227.122 140.152 232.905C151.041 269.733 136.769 310.044 130.003 325.102C126.98 331.825 124.238 336.827 121.516 342.07C118.163 341.02 114.129 340.769 111.047 340.259C82.9487 335.701 55.3127 328.649 28.4663 319.189C27.9959 319.028 27.5253 318.868 27.0352 318.738C33.7108 299.799 41.8676 281.94 42.9787 260.999C43.4591 251.914 44.53 237.287 46.1714 228.342C48.9337 213.275 55.7897 199.308 62.6454 185.611C79.4899 151.994 99.3167 116.656 128.341 95.6653C131.414 93.4441 136.148 90.4926 139.921 90.8528C145.066 91.3531 148.779 94.7148 148.869 101.668C148.962 106.269 148.131 110.841 146.427 115.115C146.427 115.115 137.56 123.99 129.673 139.668Z" fill="#F9E3C5"/>
<path d="M129.628 140.206C128.995 130.083 126.862 126.079 122.544 124.942C116.758 123.417 111.354 129.015 107.362 134.298C98.5625 145.946 90.5453 168.992 85.4752 187.79C82.5449 198.654 80.3139 211.093 80.4186 220.994" stroke="#121214" stroke-width="2" stroke-linecap="round"/>
<path d="M126.918 356.052C127.833 352.597 128.793 348.704 126.893 345.676C124.104 341.232 116.22 341.124 111.044 340.258C82.9453 335.698 55.3087 328.645 28.4614 319.184C26.8112 318.454 24.9771 318.247 23.2055 318.59C20.9277 319.259 19.577 321.547 18.5387 323.681C14.1981 332.611 11.3597 342.195 10.1375 352.048C9.52719 356.983 11.4679 366.576 24.17 371.466C44.8977 379.445 95.0592 391.499 101.617 390.593C107.316 389.806 111.286 386.43 116.301 378.629C116.302 378.629 124.209 366.278 126.918 356.052Z" fill="#CD3C32"/>
<path d="M197.737 73.9901V65.2754" stroke="white" stroke-linecap="round"/>
<path d="M212.535 74.5058V61.7891" stroke="white" stroke-linecap="round"/>
<path d="M227.361 74.4535V64.7383" stroke="white" stroke-linecap="round"/>
<path d="M211.935 43.3763C228.847 53.1295 249.187 54.4438 268.284 54.2075C279.219 54.0723 290.102 53.6368 301.032 54.3496C312.452 54.9923 323.764 56.9179 334.753 60.0899C353.477 65.6797 371.288 76.0813 383.166 91.868C395.137 107.779 400.421 127.568 402.965 147.031C406.277 172.367 405.973 198.141 405.998 223.642C406.017 224.181 406.46 224.608 406.999 224.608C407.539 224.608 407.981 224.181 408 223.642C407.977 200.165 408.123 176.551 405.685 153.172C403.664 133.791 399.505 114.018 389.205 97.2066C379.174 80.8338 363.523 69.0821 345.885 61.8888C325.315 53.5003 302.762 51.551 280.742 51.914C257.925 52.2902 233.449 53.4729 212.946 41.6484C212.471 41.3917 211.877 41.5579 211.605 42.024C211.332 42.4901 211.478 43.0883 211.935 43.3762V43.3763Z" fill="#121214"/>
<path fill-rule="evenodd" clip-rule="evenodd" d="M212.136 41.1168C223.031 28.3829 240.102 17.6967 255.059 10.1312C263.15 6.03849 271.658 2.45794 280.657 1.33957C289.656 0.221208 299.27 1.78807 306.551 7.19246C313.831 12.5968 318.235 22.2392 316.009 31.0269C313.654 40.3209 304.621 46.7246 295.254 48.7818C285.887 50.8391 276.144 49.3572 266.684 47.7797C247.672 44.6094 232.244 38.8946 212.662 42.2397L212.136 41.1168Z" stroke="#121214" stroke-width="2"/>
<path fill-rule="evenodd" clip-rule="evenodd" d="M210.734 41.0333C196.502 30.5458 167.337 10.5727 137.95 16.8183C129.827 18.5445 123.594 25.0596 119.472 32.2655C115.833 38.6259 114.079 46.8047 117.664 53.1958C122.588 61.9763 134.662 63.2437 144.673 62.156C162.937 60.1715 188.516 40.4817 209.956 42.5879L210.734 41.0333Z" stroke="#121214" stroke-width="2"/>
<path d="M209.271 41.8587C199.584 44.1365 191.722 49.6412 185.174 56.9972C179.424 63.4569 174.703 71.2143 167.666 76.4126C159.23 82.644 147.444 84.823 137.274 86.2464C124.085 88.0924 110.733 88.5031 97.5149 90.1035C84.8985 91.6311 72.4805 94.3064 60.7654 99.3359C50.3644 103.822 40.805 110.048 32.498 117.747C15.9454 133.046 4.46589 153.83 1.09764 176.169C-2.9201 203.379 4.18947 231.061 20.823 252.971C21.5966 253.979 23.3361 252.983 22.5515 251.961C7.6743 232.427 0.455336 208.129 2.25411 183.643C5.27624 148.895 26.2926 118.272 57.635 102.946C69.2097 97.3501 81.7396 94.2284 94.435 92.499C107.313 90.7448 120.319 90.1847 133.231 88.7419C143.409 87.6045 153.902 85.6896 163.233 81.3107C172.036 77.1797 177.533 69.3233 183.527 62.015C190.605 53.3842 198.681 46.4035 209.803 43.7883C211.057 43.4935 210.526 41.5636 209.271 41.8587L209.271 41.8587Z" fill="#121214"/>
<path d="M210.165 39.8249L212.182 39.74C213.435 39.6873 214.493 40.6599 214.546 41.9125V41.9125C214.571 42.514 214.357 43.1009 213.949 43.5441C213.542 43.9873 212.975 44.2505 212.373 44.2759L210.356 44.3607C209.103 44.4135 208.045 43.4409 207.992 42.1883V42.1883C207.967 41.5868 208.181 40.9999 208.589 40.5567C208.996 40.1135 209.563 39.8503 210.165 39.8249V39.8249Z" fill="#121214"/>
<path fill-rule="evenodd" clip-rule="evenodd" d="M266.182 225.516C266.073 225.426 265.961 225.342 265.849 225.258C265.761 225.192 265.673 225.127 265.587 225.058C265.577 225.05 265.573 225.04 265.561 225.032L265.521 225.008C261.656 221.935 257.292 219.55 252.618 217.957C256.731 218.291 260.864 218.303 264.979 217.993L264.979 217.993C265.015 217.99 265.05 217.989 265.086 217.986C265.143 217.98 265.199 217.964 265.251 217.939C265.572 217.887 265.868 217.732 266.095 217.499C266.274 217.368 266.347 217.135 266.274 216.925C266.201 216.716 266 216.578 265.778 216.587C258.707 216.337 251.64 216.014 244.575 215.617C244.386 215.62 244.198 215.655 244.021 215.722C243.1 215.229 242.148 214.745 241.166 214.267C242.268 213.85 243.405 213.533 244.564 213.319C249.861 212.294 255.348 212.952 260.718 213.691C261.165 213.753 261.613 213.233 261.205 212.855C259.554 211.325 256.462 211.261 253.934 211.209C253.251 211.195 252.61 211.182 252.049 211.141C250.302 210.923 248.53 211.036 246.825 211.474C246.66 211.523 246.356 211.609 245.957 211.721L245.955 211.721L245.955 211.721C244.426 212.152 241.515 212.971 239.808 213.625C239.245 213.363 238.678 213.104 238.108 212.849C243.725 210.547 249.634 209.327 255.572 208.115C256.299 207.967 256.349 207.345 255.958 207.174C254.569 206.565 251.274 207.394 249.219 207.977C245.009 209.167 240.873 210.605 236.833 212.285L236.648 212.204L236.484 212.132L236.307 212.055C239.007 210.487 241.789 209.063 244.64 207.789C245.727 207.324 246.854 206.951 247.98 206.579L247.981 206.579L247.981 206.579L247.981 206.579L247.981 206.579L247.981 206.579L247.981 206.578L247.981 206.578L247.981 206.578L247.982 206.578L247.982 206.578L247.982 206.578L247.982 206.578L247.982 206.578L247.982 206.578L247.982 206.578L247.982 206.578L247.982 206.578L247.983 206.578L247.983 206.578L247.983 206.578L247.983 206.578L247.983 206.578L247.983 206.578L247.983 206.578L247.983 206.578C249.693 206.012 251.401 205.447 252.967 204.56C253.496 204.26 253.109 203.568 252.581 203.646C246.324 204.574 240.971 207.858 235.729 211.206C235.718 211.213 235.56 211.293 235.364 211.392L235.088 211.532C234.423 211.25 233.765 210.974 233.113 210.704C234.864 209.788 236.56 208.772 238.194 207.661L250.16 200.759C250.369 200.628 250.452 200.365 250.357 200.138C250.261 199.911 250.014 199.786 249.775 199.845C247.158 200.422 244.864 201.988 242.641 203.505L242.641 203.505L242.641 203.505L242.641 203.505L242.641 203.505L242.641 203.505L242.641 203.505C242.127 203.856 241.617 204.204 241.107 204.537C240.393 205.003 239.682 205.478 238.971 205.953L238.97 205.953L238.969 205.954L238.968 205.955L238.967 205.956L238.966 205.956L238.965 205.957L238.964 205.958L238.962 205.959L238.961 205.959L238.96 205.96L238.959 205.961L238.958 205.961L238.957 205.962L238.956 205.963L238.955 205.964L238.953 205.964L238.952 205.965L238.951 205.966C238.569 206.221 238.187 206.476 237.804 206.731L231.831 210.175C231.294 209.956 230.763 209.74 230.246 209.531C230.016 209.438 229.784 209.344 229.553 209.249L229.552 209.249L229.339 209.162L228.993 209.022C229.478 208.594 229.934 208.132 230.391 207.67C231.278 206.773 232.164 205.876 233.254 205.23C233.315 205.193 233.378 205.161 233.441 205.129C233.477 205.11 233.512 205.092 233.548 205.073C234.761 204.691 236.054 204.45 237.333 204.211L237.333 204.211L237.333 204.211L237.333 204.211L237.333 204.211L237.334 204.211L237.334 204.211L237.334 204.211L237.334 204.21L237.334 204.21L237.334 204.21L237.334 204.21L237.334 204.21L237.334 204.21L237.335 204.21C238.342 204.022 239.341 203.836 240.285 203.583C243.495 202.71 246.4 200.967 248.681 198.547C249.061 198.153 248.558 197.427 248.074 197.761C246.262 199.104 244.33 200.278 242.303 201.268C240.384 202.002 238.407 202.577 236.393 202.986C235.271 203.257 234.181 203.651 233.144 204.159C230.793 204.779 228.799 206.336 227.628 208.466C226.578 208.037 225.528 207.597 224.476 207.149C227.069 204.013 231.043 202.996 235.019 201.979C237.892 201.243 240.765 200.508 243.12 198.974C243.26 198.879 243.345 198.723 243.349 198.555C243.352 198.386 243.274 198.226 243.138 198.126C243.08 198 242.974 197.903 242.843 197.858C242.712 197.813 242.568 197.824 242.445 197.888C240.232 199.021 237.669 199.678 235.095 200.338C230.524 201.509 225.916 202.69 223.157 206.566C221.876 206.001 220.611 205.411 219.36 204.796C222.533 202.533 226.217 201.089 230.083 200.592C233.204 200.089 236.14 198.784 238.605 196.805C238.717 196.722 238.78 196.589 238.774 196.451C238.767 196.312 238.692 196.185 238.574 196.113C238.523 195.977 238.416 195.868 238.281 195.813C238.146 195.759 237.994 195.764 237.862 195.827C234.529 197.406 231.06 198.68 227.497 199.632C224.477 200.47 221.635 201.85 219.109 203.705C219.088 203.72 218.98 203.806 218.848 203.912L218.848 203.912C218.682 204.043 218.48 204.205 218.363 204.295L218.356 204.302C217.754 203.994 217.163 203.666 216.572 203.338L216.57 203.338L216.333 203.206C217.545 202.31 218.708 201.35 219.817 200.329C221.044 199.237 222.464 198.384 224.004 197.814C224.815 197.588 225.642 197.399 226.474 197.241C226.531 197.234 226.587 197.226 226.643 197.218L226.644 197.218C226.763 197.202 226.883 197.185 227.006 197.175C227.081 197.169 227.154 197.147 227.22 197.111C229.559 196.743 231.915 196.499 234.279 196.38C234.917 196.34 234.926 195.35 234.279 195.379C227.326 195.687 219.656 196.849 214.728 202.298C213.983 201.861 213.24 201.418 212.509 200.956C213.545 200.504 214.369 200.222 215.088 199.976L215.089 199.976L215.089 199.976C215.694 199.769 216.226 199.587 216.747 199.35C217.04 199.267 217.328 199.167 217.61 199.053C218.611 198.631 219.583 198.147 220.556 197.663C221.033 197.425 221.511 197.187 221.992 196.957C223.265 196.356 224.584 195.856 225.935 195.46C226.513 195.317 227.089 195.178 227.657 195.048C227.733 195.031 227.803 194.996 227.862 194.945C229.092 194.65 230.331 194.385 231.559 194.122L231.559 194.122L231.559 194.122L231.559 194.122L231.559 194.122L231.559 194.122L231.559 194.122L231.559 194.122L231.56 194.122L231.56 194.121L231.56 194.121L231.56 194.121L231.56 194.121L231.56 194.121L231.56 194.121C232.293 193.964 233.022 193.808 233.744 193.647C234.373 193.506 234.106 192.548 233.478 192.682C233.012 192.781 232.547 192.878 232.082 192.975L232.079 192.976C230.432 193.32 228.797 193.661 227.186 194.081C226.576 194.232 225.971 194.396 225.369 194.568C220.443 195.666 215.711 197.503 211.333 200.015C211.292 200.042 211.255 200.076 211.224 200.114C211.17 200.079 211.117 200.043 211.064 200.007L210.963 199.94C214.17 197.142 217.333 194.636 221.501 193.448C222.467 193.173 223.44 192.937 224.409 192.701C226.808 192.118 229.189 191.539 231.42 190.385C231.944 190.113 231.568 189.356 231.034 189.47C223.345 191.112 215.343 193.11 209.997 199.298C209.439 198.916 208.885 198.528 208.335 198.132C208.366 198.094 208.396 198.055 208.426 198.016L208.483 197.943C208.596 197.796 208.71 197.65 208.831 197.512C211.965 194.8 215.777 193.296 219.598 191.789C222.134 190.788 224.674 189.786 227.022 188.428C227.498 188.153 227.182 187.313 226.636 187.514C225.517 187.926 224.357 188.322 223.181 188.724C217.79 190.564 212.054 192.523 208.245 196.697C207.882 197.043 207.632 197.294 207.449 197.49C207.368 197.431 207.287 197.372 207.205 197.314L207.205 197.314C207.1 197.239 206.996 197.164 206.892 197.087C207.546 196.497 208.196 195.904 208.847 195.31C210.558 193.751 212.27 192.189 214.037 190.7C217.007 188.196 220.305 187.22 224.038 186.452C224.273 186.38 224.421 186.148 224.388 185.904C224.355 185.661 224.151 185.477 223.905 185.469C216.878 185.749 212.44 190.116 207.796 194.686L207.796 194.686C207.219 195.254 206.639 195.825 206.05 196.392C206.044 196.397 206.03 196.408 206.016 196.418L206.01 196.422C204.945 195.61 203.895 194.776 202.862 193.92C206.675 193.507 209.576 190.952 210.417 190.21C210.462 190.171 210.501 190.136 210.534 190.108C211.181 189.547 211.829 189.027 212.485 188.539C214.726 186.875 217.269 185.662 219.973 184.967C220.048 184.956 220.123 184.943 220.197 184.93C220.308 184.911 220.418 184.891 220.531 184.879C221.165 184.812 221.172 183.811 220.531 183.879C220.511 183.881 220.491 183.884 220.471 183.887H220.471C220.452 183.89 220.434 183.893 220.415 183.895C220.336 183.872 220.252 183.868 220.171 183.884C220.072 183.905 219.974 183.928 219.876 183.952L219.876 183.952L219.875 183.952L219.783 183.974C219.755 183.981 219.728 183.987 219.7 183.994C216.983 184.433 214.384 185.421 212.062 186.899C211.231 187.413 210.456 188.107 209.638 188.84C208.346 189.999 206.946 191.254 205.045 192.044C204.194 192.302 203.326 192.511 202.463 192.714C203.424 191.674 204.496 190.741 205.66 189.932C206.13 189.563 206.592 189.184 207.054 188.806L207.055 188.805L207.055 188.805L207.055 188.805L207.056 188.804L207.056 188.804L207.056 188.804L207.057 188.804L207.057 188.803L207.057 188.803L207.058 188.803L207.058 188.802L207.059 188.802L207.059 188.802L207.059 188.801L207.06 188.801L207.06 188.801L207.06 188.801L207.061 188.8L207.061 188.8L207.061 188.8L207.062 188.799L207.062 188.799L207.063 188.799L207.063 188.798L207.063 188.798C207.638 188.328 208.212 187.858 208.8 187.406C210.09 186.479 211.463 185.672 212.901 184.997C215.184 184.142 217.567 183.58 219.993 183.326C220.555 183.25 220.414 182.329 219.86 182.343C217.133 182.415 214.456 183.089 212.021 184.317C210.866 184.823 209.77 185.453 208.753 186.197C206.491 187.689 204.365 189.377 202.398 191.24C202.212 191.396 201.547 192.064 201.146 192.485C200.978 192.341 200.811 192.197 200.644 192.052C202.483 189.242 205.666 186.711 208.302 184.823C211.14 182.791 213.979 180.76 216.818 178.73C217.045 178.585 217.118 178.287 216.982 178.054C216.846 177.822 216.55 177.738 216.313 177.866C209.801 180.947 204.103 185.512 199.677 191.194C199.555 191.086 199.432 190.978 199.309 190.87L199.307 190.868C199.012 190.609 198.718 190.349 198.427 190.085C200.723 187.5 203.605 185.304 206.47 183.122C208.826 181.326 211.172 179.539 213.17 177.55C213.34 177.371 213.354 177.094 213.203 176.899C213.052 176.703 212.781 176.646 212.564 176.765C207.039 180.275 201.949 184.427 197.401 189.135L197.252 188.997L197.252 188.997L197.252 188.996L197.251 188.996L197.251 188.996L197.251 188.996L197.251 188.996L197.251 188.996L197.251 188.996L197.251 188.996L197.251 188.996L197.251 188.996L197.251 188.996L197.251 188.996L197.251 188.996L197.251 188.996L197.25 188.995L197.25 188.995L197.25 188.995L197.25 188.995L197.25 188.995L197.25 188.995L197.25 188.995L197.25 188.995L197.25 188.995L197.25 188.995C196.755 188.537 196.261 188.079 195.775 187.613C196.019 187.47 196.259 187.325 196.495 187.175C196.524 187.164 196.552 187.149 196.579 187.133C196.585 187.128 196.591 187.122 196.597 187.117C196.602 187.112 196.608 187.107 196.614 187.102C198.993 185.5 201.111 183.542 202.896 181.297C203.22 180.91 203.547 180.545 203.877 180.196C205.871 179.404 207.881 178.65 209.915 177.965C210.173 177.884 210.32 177.614 210.248 177.354C210.176 177.094 209.911 176.937 209.649 177C208.633 177.26 207.618 177.53 206.607 177.81C208.434 176.525 210.5 175.617 212.683 175.139C212.918 175.067 213.066 174.835 213.033 174.591C213 174.348 212.796 174.164 212.55 174.156C209.481 174.044 206.527 175.327 204.515 177.646C204.17 178.01 203.828 178.376 203.491 178.746C199.929 179.815 196.596 181.537 193.662 183.823C193.607 183.851 193.558 183.889 193.517 183.935C193.255 184.166 193.016 184.421 192.803 184.697C192.004 183.894 191.214 183.086 190.432 182.273C192.465 180.583 194.924 179.564 197.356 178.555L197.356 178.555L197.357 178.555L197.357 178.555L197.357 178.555L197.357 178.555L197.358 178.554L197.358 178.554L197.358 178.554L197.358 178.554L197.359 178.554L197.359 178.554L197.359 178.554L197.36 178.554L197.36 178.554L197.36 178.553L197.36 178.553L197.361 178.553L197.361 178.553L197.361 178.553L197.361 178.553L197.362 178.553L197.362 178.553L197.362 178.552L197.363 178.552L197.363 178.552C197.798 178.372 198.233 178.191 198.664 178.008L208.089 173.991C208.624 173.764 208.235 172.943 207.704 173.077C202.173 174.471 196.881 176.681 192.001 179.633C195.387 174.812 200.74 172.09 206.004 169.594C206.492 169.363 206.2 168.696 205.752 168.661C202.451 168.407 199.345 170.792 196.859 172.707C193.879 175.027 191.272 177.788 189.128 180.895C188.127 179.834 187.139 178.77 186.163 177.703C186.241 177.625 186.305 177.563 186.331 177.543C188.929 175.542 191.831 174.055 194.733 172.568C197.625 171.087 200.518 169.605 203.11 167.614L203.143 167.596L203.14 167.592C203.156 167.58 203.173 167.568 203.19 167.556C203.199 167.55 203.208 167.544 203.217 167.538C203.226 167.532 203.235 167.525 203.244 167.518C203.706 167.159 203.117 166.472 202.637 166.732C199.194 168.602 195.695 170.344 192.171 172.055C189.592 173.151 187.267 174.765 185.339 176.796C185.143 176.58 184.948 176.363 184.754 176.146L184.752 176.144L184.546 175.914C187.003 172.998 190.325 171.323 193.658 169.643C196.37 168.277 199.088 166.907 201.353 164.862C201.708 164.541 201.336 163.84 200.866 164.026C195.001 166.352 188.135 170.33 183.55 174.807C183.48 174.729 183.411 174.651 183.342 174.573L183.34 174.57L183.335 174.565L183.149 174.356C183.621 173.98 184.068 173.573 184.486 173.139C186.415 171.396 188.581 169.928 190.745 168.463L190.745 168.463C193.362 166.69 195.977 164.919 198.163 162.664C198.551 162.265 198.051 161.57 197.557 161.879C192.623 164.961 187.731 168.153 183.78 172.43C183.72 172.484 183.66 172.538 183.6 172.592L183.599 172.592L183.599 172.592L183.599 172.592L183.599 172.592L183.599 172.592L183.599 172.593L183.599 172.593L183.599 172.593L183.599 172.593L183.599 172.593L183.599 172.593L183.599 172.593L183.599 172.593L183.599 172.593L183.599 172.593L183.599 172.593L183.599 172.593L183.599 172.593L183.599 172.593L183.599 172.593L183.599 172.593L183.599 172.593L183.599 172.593L183.599 172.593L183.599 172.593C183.263 172.895 182.928 173.197 182.611 173.522C182.587 173.547 182.551 173.589 182.514 173.632L182.514 173.632L182.512 173.634C181.579 172.581 180.658 171.532 179.747 170.489C179.754 170.482 179.759 170.475 179.765 170.468L179.773 170.458C179.779 170.451 179.785 170.443 179.791 170.436C182.22 168.86 184.878 167.738 187.536 166.616C190.644 165.304 193.751 163.993 196.483 161.956C196.711 161.812 196.783 161.513 196.647 161.281C196.511 161.048 196.215 160.965 195.978 161.092L185.251 166.041C184.925 166.191 184.596 166.338 184.267 166.485C182.379 167.329 180.489 168.173 179.1 169.69L179.073 169.707L179.068 169.712C178.403 168.949 177.744 168.191 177.091 167.44C177.113 167.439 177.135 167.438 177.157 167.434C180.974 166.393 184.742 165.195 188.445 163.799C188.854 163.645 189.279 163.495 189.71 163.343C191.948 162.553 194.371 161.698 195.798 159.818C196.132 159.377 195.51 158.945 195.113 159.133C194.944 159.213 194.775 159.293 194.605 159.373L194.603 159.373L194.602 159.374L194.601 159.374L194.599 159.376C194.448 159.446 194.298 159.517 194.148 159.588C193.982 158.981 193.809 158.378 193.628 157.777C193.699 157.589 193.635 157.376 193.473 157.258C191.727 151.602 189.304 146.179 186.256 141.105L186.542 141.099L186.542 141.099L186.542 141.099L186.542 141.099L186.542 141.099L186.543 141.099L186.543 141.099L186.543 141.099L186.543 141.099L186.543 141.099L186.544 141.099L186.544 141.099L186.544 141.099L186.544 141.099L186.544 141.099L186.545 141.099L186.545 141.099L186.545 141.099L186.545 141.099L186.545 141.099L186.546 141.099L186.546 141.099L186.546 141.099L186.546 141.099L186.546 141.099L186.547 141.099C186.97 141.089 187.393 141.079 187.816 141.067C187.835 141.114 187.861 141.158 187.894 141.196C189.174 142.5 190.384 143.871 191.52 145.302C192.038 149.605 193.131 153.82 194.77 157.833L194.774 157.848L194.776 157.847C194.784 157.865 194.791 157.884 194.799 157.903L194.799 157.903L194.799 157.904C194.805 157.919 194.811 157.934 194.817 157.95L194.825 157.967C195.058 158.498 195.875 158.114 195.739 157.582C194.919 154.378 194.179 151.158 193.52 147.921C194.107 148.731 194.682 149.555 195.246 150.392C196.744 152.912 198.783 155.069 201.215 156.707C201.69 156.994 202.262 156.297 201.822 155.921C199.813 154.204 198.293 152.103 196.765 149.991L196.764 149.991L196.764 149.99L196.764 149.99L196.764 149.99L196.764 149.99L196.764 149.99L196.764 149.99L196.764 149.99L196.764 149.99L196.764 149.99L196.764 149.99L196.764 149.99L196.764 149.99L196.764 149.99L196.764 149.99L196.764 149.99L196.764 149.99L196.764 149.99L196.764 149.99L196.764 149.99L196.764 149.99L196.764 149.99L196.764 149.99L196.764 149.99L196.764 149.99C196.179 149.181 195.593 148.372 194.978 147.581C194.333 146.751 193.653 145.945 192.964 145.147C192.695 143.741 192.441 142.332 192.202 140.92C193.035 140.889 193.867 140.856 194.698 140.823C197.27 142.992 198.634 145.977 200.005 148.974C200.955 151.052 201.908 153.136 203.267 154.959C203.574 155.37 204.405 155.151 204.182 154.574C203.057 151.624 201.695 148.77 200.11 146.04C199.919 145.714 199.719 145.345 199.507 144.954C198.706 143.475 197.735 141.684 196.447 140.752L196.842 140.736L196.851 140.736L196.851 140.736L196.852 140.736L196.853 140.736L196.854 140.736L196.854 140.736L196.855 140.736C197.199 140.721 197.544 140.707 197.887 140.694C198.048 140.687 198.212 140.679 198.376 140.67C198.495 140.664 198.615 140.658 198.733 140.652C198.938 140.928 199.141 141.205 199.344 141.482C199.746 142.274 200.219 143.028 200.758 143.734C202.339 145.731 203.635 147.939 204.607 150.293C205.145 151.664 205.646 153.042 206.147 154.419L206.147 154.419L206.147 154.419L206.147 154.419L206.147 154.419L206.147 154.419L206.147 154.419L206.147 154.419L206.147 154.42L206.147 154.42L206.147 154.42L206.147 154.42L206.147 154.42L206.147 154.42L206.147 154.42L206.147 154.42L206.147 154.42L206.147 154.42L206.147 154.42L206.147 154.421L206.147 154.421L206.147 154.421L206.148 154.421L206.148 154.421L206.148 154.421L206.148 154.421C206.975 156.697 207.801 158.97 208.79 161.2L208.79 161.203L208.791 161.203C208.799 161.223 208.807 161.243 208.815 161.263L208.816 161.263L208.816 161.263L208.816 161.263L208.828 161.293C208.832 161.303 208.836 161.313 208.84 161.323C209.088 161.877 209.845 161.453 209.755 160.937C208.735 155.725 206.72 150.759 203.821 146.309C203.56 145.859 203.287 145.415 202.984 144.988L202.98 144.981C202.095 143.622 201.165 142.289 200.208 140.978C200.173 140.907 200.145 140.831 200.116 140.755L200.116 140.755C200.094 140.698 200.073 140.642 200.049 140.588L200.443 140.567L200.444 140.567L200.449 140.567C200.993 140.539 201.538 140.51 202.088 140.479C202.094 140.501 202.101 140.523 202.111 140.544C205.245 145.948 208.063 151.528 210.551 157.258C210.776 157.777 211.642 157.407 211.466 156.872C209.552 151.069 206.91 145.532 203.603 140.393C203.999 140.371 204.394 140.351 204.79 140.331L204.79 140.331L204.79 140.331L204.791 140.331L204.791 140.331L204.792 140.331L204.792 140.331L204.792 140.331L204.793 140.331L204.793 140.331L204.794 140.331L204.794 140.331L204.794 140.331L204.795 140.331L204.795 140.331L204.796 140.331L204.796 140.331L204.797 140.331L204.797 140.331L204.797 140.331L204.798 140.331L204.798 140.331L204.799 140.331L204.799 140.331L204.799 140.331L204.8 140.331C204.989 140.321 205.179 140.311 205.369 140.302C206.13 143.698 208.083 147.027 209.828 149.995C211.434 152.868 213.598 155.391 216.195 157.414L216.2 157.42L216.201 157.419C216.217 157.431 216.232 157.444 216.248 157.456C216.265 157.471 216.283 157.485 216.301 157.498C216.784 157.857 217.253 157.116 216.908 156.713C212.661 151.763 208.675 146.54 206.779 140.23C207.12 140.215 207.457 140.205 207.795 140.194C207.956 140.19 208.118 140.185 208.28 140.179C208.309 140.224 208.338 140.269 208.367 140.314L208.367 140.314L208.367 140.314C208.403 140.369 208.438 140.424 208.474 140.478L208.479 140.491C208.964 141.216 209.436 141.948 209.909 142.68L209.909 142.68L209.909 142.681L209.909 142.681L209.909 142.681L209.909 142.681L209.909 142.681L209.91 142.682L209.91 142.682L209.91 142.682L209.91 142.682L209.91 142.682L209.91 142.683L209.91 142.683L209.91 142.683L209.911 142.683L209.911 142.683L209.911 142.683L209.911 142.684L209.911 142.684L209.911 142.684L209.911 142.684L209.911 142.684L209.912 142.685L209.912 142.685L209.912 142.685C210.192 143.119 210.472 143.552 210.754 143.984C213.211 147.897 215.479 151.92 217.557 156.053C217.83 156.596 218.558 156.188 218.472 155.668C218.105 153.468 216.856 151.555 215.641 149.695L215.641 149.695L215.641 149.695L215.64 149.694L215.64 149.694L215.64 149.694L215.64 149.694L215.64 149.694L215.64 149.694C215.389 149.31 215.14 148.928 214.9 148.546C213.164 145.785 211.39 143.049 209.576 140.338C209.546 140.293 209.516 140.247 209.487 140.201L209.449 140.143C209.537 140.141 209.626 140.137 209.716 140.134C209.823 140.13 209.931 140.126 210.037 140.124C210.371 140.119 210.709 140.115 211.047 140.111C211.053 140.128 211.059 140.144 211.067 140.16C214.491 145.305 219.952 151.156 226.167 152.634C226.692 152.759 227.091 151.964 226.553 151.719C223.65 150.387 221.049 148.478 218.908 146.107C218.178 145.316 217.28 144.587 216.373 143.85L216.373 143.85L216.373 143.85L216.373 143.85L216.373 143.85L216.373 143.85L216.373 143.85L216.373 143.85L216.373 143.85L216.373 143.85L216.373 143.85L216.373 143.85L216.373 143.85L216.372 143.85L216.372 143.85L216.372 143.85L216.372 143.85C214.962 142.705 213.532 141.543 212.678 140.106C213.352 140.109 214.031 140.123 214.715 140.148L214.718 140.151L214.721 140.155C214.723 140.158 214.724 140.16 214.726 140.163L214.728 140.166L214.731 140.17C214.734 140.174 214.737 140.177 214.74 140.18C217.993 143.031 221.461 145.627 225.113 147.944C226.852 148.996 228.783 149.69 230.794 149.983C231.134 150.398 231.498 150.793 231.884 151.166C233.498 152.687 235.4 153.87 237.478 154.645C238.434 157.41 239.857 159.891 242.395 161.205C242.802 161.415 243.393 160.957 243.08 160.52C241.736 158.768 240.593 156.87 239.673 154.861C239.737 154.635 239.641 154.395 239.44 154.273C239.287 153.863 239.145 153.447 239.027 153.015C238.407 150.814 237.656 148.651 236.78 146.539C237.817 146.904 238.858 147.256 239.908 147.584C239.89 147.684 239.903 147.788 239.946 147.881C240.176 148.369 240.406 148.867 240.638 149.371L240.639 149.372L240.639 149.373L240.64 149.374L240.64 149.375L240.64 149.375C243.293 155.125 246.269 161.574 253.246 162.502C253.792 162.574 253.869 161.788 253.498 161.569C253.155 161.366 252.807 161.165 252.458 160.962C249.949 159.507 247.342 157.994 245.612 155.523C244.016 153.289 242.656 150.896 241.554 148.382C241.615 148.387 241.672 148.384 241.729 148.38C241.77 148.378 241.81 148.375 241.852 148.376C242.751 149.188 243.475 150.193 244.198 151.198C244.737 151.948 245.277 152.698 245.889 153.367C247.37 154.967 249.035 156.387 250.849 157.596C251.313 157.91 251.896 157.173 251.455 156.81C248.926 154.552 246.639 152.036 244.633 149.302C244.815 149.327 244.985 149.354 245.156 149.381L245.156 149.381L245.277 149.4C247.21 151.462 249.508 153.081 251.805 154.699L251.805 154.699L251.805 154.699L251.805 154.699L251.805 154.699L251.805 154.699L251.805 154.699L251.805 154.699L251.805 154.699L251.805 154.699L251.805 154.699L251.805 154.699L251.805 154.699C254.242 156.416 256.678 158.131 258.678 160.376C259.109 160.861 259.8 160.154 259.385 159.669C256.259 156.007 252.381 153.255 248.484 150.491L248.483 150.49C248.171 150.269 247.858 150.047 247.546 149.824C248.425 150.018 249.259 150.232 250.17 150.465L250.171 150.465L250.173 150.466L250.176 150.467L250.179 150.467C250.643 150.586 251.128 150.71 251.65 150.84C252.359 151.016 253.104 151.232 253.868 151.455L253.868 151.455L253.869 151.455L253.869 151.455L253.869 151.455L253.869 151.455L253.869 151.455L253.869 151.455C256.265 152.153 258.851 152.906 261.162 152.635C261.702 152.572 261.879 151.788 261.295 151.653C260.466 151.461 258.941 151.148 257.176 150.785L257.176 150.785L257.176 150.785L257.175 150.785C253.294 149.988 248.255 148.953 246.914 148.452C247.852 148.331 248.769 148.136 249.689 147.94C250.549 147.757 251.412 147.574 252.297 147.45C254.136 147.335 255.966 147.112 257.778 146.783C257.991 146.718 258.136 146.522 258.136 146.3C258.136 146.078 257.991 145.882 257.778 145.818C255.943 145.42 254.049 145.371 252.196 145.674C251.078 145.858 250.001 146.193 248.925 146.529C247.909 146.845 246.894 147.162 245.846 147.349C246.728 146.684 247.574 145.974 248.381 145.221C251.286 142.757 254.446 141.18 258.301 141.664C258.941 141.739 258.931 140.742 258.301 140.663C257.613 140.572 256.919 140.534 256.225 140.549C254.076 140.556 251.952 141.024 250 141.923C248.77 142.488 247.624 143.22 246.595 144.099C246.206 144.431 245.837 144.815 245.466 145.202C244.687 146.013 243.899 146.833 242.903 147.199C242.011 146.894 241.128 146.57 240.246 146.246L240.246 146.246L240.246 146.246L240.246 146.246L240.246 146.246L240.246 146.246L240.246 146.245L240.246 146.245L240.246 146.245L240.246 146.245L240.246 146.245L240.245 146.245L240.245 146.245L240.245 146.245L240.245 146.245L240.245 146.245L240.245 146.245L240.245 146.245L240.245 146.245L240.245 146.245L240.245 146.245L240.245 146.245L240.244 146.245L240.244 146.245L240.244 146.245L240.244 146.245L239.893 146.116C241.019 145.532 241.955 144.277 242.748 143.213C242.971 142.913 243.184 142.628 243.386 142.377C243.913 141.724 244.416 141.055 244.908 140.378C246.969 139.409 249.041 138.465 251.135 137.567C251.591 137.404 252.036 137.211 252.467 136.989C252.958 136.731 252.61 135.853 252.081 136.075C252.061 136.084 252.04 136.093 252.02 136.102L252.02 136.102C252.001 136.11 251.982 136.119 251.962 136.127L251.961 136.126C251.956 136.129 251.95 136.131 251.944 136.134L251.93 136.14L251.925 136.142C251.913 136.147 251.902 136.152 251.89 136.158C251.65 136.259 251.412 136.364 251.174 136.469L251.174 136.469L251.174 136.469L251.174 136.469L251.174 136.469L251.174 136.469L251.173 136.469L251.173 136.469L251.173 136.469L251.173 136.469L251.173 136.469L251.173 136.469L251.173 136.469L251.172 136.469C250.994 136.548 250.816 136.626 250.637 136.703C249.34 137.146 248.018 137.509 246.677 137.792C247.1 137.133 247.515 136.467 247.912 135.789C248.03 135.572 247.973 135.301 247.778 135.15C247.582 134.999 247.306 135.013 247.126 135.183C246.117 136.213 245.17 137.303 244.291 138.446C243.531 138.68 242.796 138.99 242.098 139.371C239.46 140.752 236.932 142.334 234.538 144.103L234.49 144.085C234.381 144.044 234.209 143.976 233.984 143.889L233.982 143.888C233.758 143.801 233.481 143.693 233.163 143.57C236.363 141.706 238.479 138.703 240.279 135.503C241.981 134.741 243.731 134.093 245.518 133.563C246.036 133.411 245.965 132.512 245.385 132.58C245.361 132.583 245.339 132.587 245.316 132.591L245.316 132.591C245.295 132.594 245.274 132.598 245.252 132.601L245.252 132.598L245.234 132.604C243.92 132.777 242.626 133.078 241.37 133.501C241.404 133.435 241.528 133.233 241.654 133.028L241.654 133.027L241.654 133.027L241.654 133.027L241.655 133.026L241.655 133.026C241.784 132.815 241.915 132.603 241.95 132.535C242.068 132.318 242.011 132.048 241.816 131.897C241.62 131.746 241.344 131.759 241.164 131.929C240.745 132.352 240.154 133.099 239.663 133.719C239.481 133.948 239.313 134.16 239.173 134.332C237.6 134.993 235.968 135.798 234.305 136.618C231.2 138.148 227.983 139.734 224.815 140.553C223.405 140.074 221.967 139.679 220.51 139.371C220.026 139.282 219.54 139.208 219.055 139.142C220.612 138.615 222.287 138.364 223.947 138.114L223.947 138.114C225.065 137.946 226.175 137.78 227.237 137.531C230.729 136.782 234.035 135.343 236.962 133.297C237.19 133.153 237.263 132.854 237.127 132.621C236.991 132.389 236.695 132.305 236.457 132.433C233.026 134.332 229.307 135.655 225.447 136.349C224.945 136.437 224.435 136.52 223.92 136.603L223.92 136.603C221.269 137.032 218.48 137.483 215.952 138.855C214.325 138.765 212.714 138.757 211.143 138.775C213.546 137.753 216.098 137.117 218.643 136.483C219.976 136.152 221.307 135.82 222.614 135.434C223.187 135.264 223.829 135.099 224.506 134.923L224.507 134.923L224.507 134.923C227.347 134.188 230.822 133.289 232.539 131.291C232.829 130.954 232.561 130.251 232.052 130.455C227.947 132.097 223.728 133.392 219.497 134.664C218.625 134.926 217.716 135.157 216.797 135.391C214.078 136.083 211.269 136.798 209.063 138.4C208.907 138.516 208.767 138.652 208.647 138.805C208.456 138.807 208.265 138.809 208.075 138.811L208.073 138.811C207.641 138.816 207.209 138.821 206.776 138.824C211.292 132.759 218.426 129.979 225.305 127.436C225.9 127.21 225.647 126.246 225.039 126.471C223.637 127.003 222.242 127.404 220.864 127.8C218.073 128.602 215.355 129.382 212.809 131.189C210.322 132.954 206.867 135.469 205.759 138.515C205.723 138.628 205.695 138.731 205.669 138.832C204.933 138.837 204.199 138.844 203.465 138.853C203.537 138.749 203.608 138.643 203.679 138.538L203.68 138.537L203.68 138.537L203.68 138.536L203.68 138.536C203.752 138.43 203.824 138.323 203.897 138.217C206.15 135.493 208.64 132.974 211.337 130.689C214.066 128.104 217.205 125.988 220.626 124.429C221.187 124.17 220.75 123.441 220.241 123.515C216.45 124.065 213.409 126.782 210.634 129.262L210.362 129.505C207.645 131.905 205.218 134.614 203.13 137.577C202.893 137.89 202.658 138.203 202.436 138.529C202.403 138.58 202.379 138.636 202.367 138.696C202.329 138.755 202.289 138.812 202.248 138.869C201.317 138.883 200.392 138.904 199.471 138.934C199.867 138.494 200.266 138.056 200.666 137.617C202.505 135.595 204.351 133.566 206.002 131.399C206.627 130.578 207.211 129.731 207.793 128.886L207.793 128.886C209.073 127.029 210.345 125.182 212.043 123.637C212.521 123.201 211.815 122.505 211.335 122.929C208.45 125.478 206.173 128.543 203.895 131.611L203.895 131.611L203.895 131.611C201.997 134.167 200.098 136.725 197.844 138.985C196.4 139.043 194.94 139.099 193.463 139.152C199.242 135.322 203.553 129.648 205.691 123.055C205.75 122.815 205.626 122.569 205.398 122.473C205.171 122.377 204.907 122.46 204.777 122.67C201.832 128.532 197.353 133.252 192.684 137.765C193.816 136.211 194.861 134.592 195.898 132.956C198.244 129.388 200.887 126.024 203.798 122.9C203.982 122.703 203.976 122.395 203.786 122.205C203.595 122.014 203.288 122.009 203.09 122.192C197.548 126.749 193.109 132.501 190.106 139.016L190.053 139.091L190.021 139.138L190.02 139.139L190.02 139.139L190.02 139.139L189.969 139.211L189.934 139.261C189.355 139.276 188.775 139.29 188.192 139.302C189.446 137.638 190.405 135.806 191.37 133.961L191.37 133.961L191.37 133.961C191.822 133.096 192.275 132.229 192.762 131.375C195.144 127.192 198.731 124.511 202.711 121.93C202.939 121.786 203.011 121.488 202.875 121.255C202.739 121.022 202.443 120.939 202.206 121.067C194.487 124.644 189.67 131.663 186.549 139.327C185.492 139.341 184.431 139.347 183.367 139.345C187.081 133.591 191.457 128.294 196.406 123.56C196.875 123.112 196.176 122.425 195.699 122.852C195.323 123.189 194.95 123.529 194.578 123.869L194.332 124.093C194.293 123.938 194.186 123.808 194.041 123.74C193.895 123.672 193.727 123.673 193.583 123.742C192.732 124.224 191.857 124.709 190.97 125.201C189.589 125.965 188.177 126.748 186.771 127.566C188.044 125.781 189.434 124.081 190.93 122.478C191.302 122.086 190.792 121.332 190.324 121.692C190.306 121.706 190.29 121.72 190.274 121.734L190.274 121.734L190.274 121.734C190.258 121.748 190.242 121.762 190.226 121.775L190.223 121.77L190.199 121.797C187.245 124.089 184.722 126.888 182.749 130.063C181.837 130.671 180.939 131.296 180.078 131.958C179.398 132.416 178.741 132.899 178.106 133.408C178.281 132.923 178.454 132.437 178.628 131.95L178.628 131.95L178.628 131.95L178.628 131.95C178.809 131.441 178.99 130.932 179.175 130.423C180.647 126.228 183.073 122.431 186.262 119.332C186.649 118.945 186.118 118.191 185.655 118.547C185.638 118.56 185.621 118.575 185.604 118.589L185.604 118.589L185.604 118.589L185.604 118.589L185.604 118.589V118.589C185.589 118.602 185.573 118.616 185.557 118.628L185.554 118.625L185.528 118.652C184.04 119.816 182.704 121.163 181.551 122.659C181.355 122.514 181.085 122.525 180.901 122.685C176.216 127.066 172.797 132.628 171.002 138.785C170.676 138.754 170.352 138.718 170.027 138.682L170.027 138.682L169.802 138.657C171.456 132.091 174.542 125.971 178.839 120.737C179.023 120.54 179.018 120.232 178.827 120.042C178.636 119.851 178.329 119.846 178.131 120.03C172.847 124.971 170.515 131.76 168.455 138.505C164.297 138.007 160.189 137.159 156.174 135.969C155.473 134.195 154.864 132.386 154.351 130.55C154.144 129.804 153.754 129.344 152.609 129.831C152.346 129.909 152.125 130.09 151.996 130.333C151.867 130.575 151.842 130.859 151.925 131.121C155.089 143.549 163.536 154.152 171.594 163.501C169.307 165.612 166.837 167.514 164.213 169.186C163.555 169.601 162.87 169.981 162.185 170.361L162.185 170.361C160.695 171.188 159.203 172.015 157.981 173.208C157.828 173.371 157.8 173.615 157.912 173.808C158.025 174.001 158.251 174.097 158.468 174.044C163.854 173.139 168.943 168.488 172.465 164.51L172.77 164.861C170.524 167.785 168.636 170.967 167.146 174.339C166.914 174.847 166.666 175.367 166.413 175.897L166.413 175.897C165.176 178.489 163.824 181.324 163.735 184.079C163.741 184.301 163.893 184.493 164.108 184.552C164.322 184.61 164.55 184.52 164.668 184.331C165.718 182.606 166.392 180.606 167.058 178.633C167.398 177.627 167.735 176.627 168.119 175.675C169.472 172.128 171.275 168.771 173.483 165.684L175.169 167.622C174.322 168.875 173.534 170.159 172.794 171.467C171.315 173.893 169.924 176.372 168.659 178.923C168.584 179.074 168.509 179.226 168.433 179.378L168.43 179.385L168.427 179.391C166.824 182.616 165.149 185.986 165.016 189.633C164.995 190.227 165.816 190.273 165.999 189.766C168.074 183.558 170.676 177.537 173.775 171.771C174.46 170.653 175.173 169.553 175.898 168.46L176.211 168.82L176.461 169.106L176.776 169.469C176.505 169.871 175.795 170.929 175.794 170.995C172.399 176.641 169.15 184.061 169.572 190.702C169.606 191.23 170.446 191.423 170.555 190.835C171.839 183.859 174.056 177.088 177.144 170.702C177.149 170.687 177.153 170.672 177.156 170.656L177.448 170.24L177.585 170.397L177.752 170.588L177.936 170.798L177.994 170.864C177.963 170.926 177.933 170.988 177.902 171.05C177.888 171.066 177.876 171.082 177.865 171.1C175.949 175.106 174.521 179.251 174.929 183.644C173.38 187.265 171.954 191.551 172.409 195.526C172.419 195.795 172.64 196.008 172.909 196.008C173.178 196.008 173.4 195.795 173.41 195.526C173.865 192.117 174.746 188.779 176.03 185.588C176.114 185.503 176.164 185.39 176.171 185.271L176.175 185.217C177.634 181.676 179.579 178.354 181.952 175.347L182.019 175.422L182.096 175.509L182.098 175.511L182.099 175.512L182.189 175.613L182.272 175.706C180.112 179.128 178.197 182.698 176.541 186.39C175.038 189.885 173.431 193.936 173.824 197.807C173.875 198.316 174.716 198.544 174.807 197.94C175.964 190.249 179.247 183.251 183.011 176.523L183.158 176.686L183.158 176.686C183.556 177.127 183.953 177.568 184.356 178.01C183.461 179.732 182.628 181.48 181.858 183.253C179.238 188.65 176.806 194.249 176.663 200.257C176.649 200.809 177.539 200.953 177.646 200.39C178.735 194.619 180.463 188.986 182.796 183.596C183.106 182.962 183.417 182.33 183.728 181.701L183.728 181.7C184.201 180.742 184.67 179.791 185.125 178.844C185.928 179.717 186.74 180.588 187.562 181.457C185.161 184.547 183.102 187.888 181.42 191.421C179.556 194.68 178.453 198.318 178.195 202.063C178.179 202.616 179.07 202.758 179.178 202.196C180.584 194.884 184.393 188.535 188.501 182.441C188.556 182.498 188.611 182.556 188.666 182.614L188.668 182.616L188.672 182.62L188.672 182.621L188.673 182.622C188.76 182.713 188.846 182.804 188.933 182.894C186.468 186.447 184.583 190.368 183.347 194.512C183.259 194.799 183.161 195.113 183.055 195.449C182.092 198.517 180.563 203.381 182.167 205.968C182.285 206.157 182.513 206.246 182.727 206.188C182.942 206.13 183.093 205.938 183.1 205.716C183.61 197.987 185.901 190.481 189.793 183.783C190.268 184.271 190.749 184.755 191.23 185.239L191.231 185.239L191.231 185.24L191.236 185.244C187.995 188.976 185.606 194.35 185.803 199.326C184.612 201.581 183.761 204.001 183.281 206.506C183.208 207.006 183.953 207.464 184.195 206.892C184.627 205.873 185.074 204.861 185.521 203.849L185.521 203.849L185.521 203.848L185.521 203.848L185.521 203.848L185.522 203.847L185.522 203.847L185.522 203.847L185.522 203.846L185.522 203.846L185.522 203.846L185.522 203.845L185.523 203.845L185.523 203.845L185.523 203.844L185.523 203.844L185.523 203.844L185.523 203.843L185.524 203.843L185.524 203.843L185.524 203.842L185.524 203.842L185.524 203.842L185.524 203.841L185.524 203.841L185.525 203.839C185.758 203.312 185.99 202.786 186.221 202.258C186.344 202.485 186.555 202.652 186.804 202.72C186.977 202.769 187.164 202.72 187.291 202.592C187.701 201.859 187.87 201.017 187.774 200.183C187.792 199.728 187.78 199.275 187.767 198.821L187.765 198.724C189.406 195.044 191.085 191.381 192.803 187.735C192.911 187.528 193.019 187.321 193.127 187.114L193.34 187.323C193.598 187.575 193.855 187.826 194.115 188.076C193.096 190.203 191.097 194.969 190.937 195.44C190.368 196.813 189.814 198.192 189.273 199.579C187.843 203.25 186.442 206.886 186.333 210.872C186.34 211.117 186.524 211.322 186.768 211.355C187.012 211.388 187.244 211.24 187.316 211.005C188.647 205.855 190.172 200.765 191.892 195.734C192.121 195.182 192.357 194.598 192.6 193.998L192.6 193.998C193.304 192.256 194.061 190.382 194.856 188.786C195.33 189.234 195.81 189.677 196.291 190.119L196.418 190.236C194.101 194.441 192.441 199.097 193.306 203.73C192.805 204.862 192.275 205.98 191.729 207.099C190.973 208.356 190.567 209.792 190.554 211.258C190.561 211.504 190.745 211.708 190.989 211.741C191.233 211.774 191.464 211.626 191.537 211.391C192.12 209.439 192.897 207.551 193.857 205.753C194.009 206.187 194.183 206.613 194.378 207.03C194.433 207.161 194.555 207.253 194.696 207.272C194.351 208.336 194.092 209.426 193.921 210.532C193.859 210.794 194.016 211.058 194.276 211.129C194.535 211.201 194.805 211.054 194.886 210.798C195.234 209.936 195.595 209.072 195.956 208.205L195.956 208.205C197.921 203.495 199.923 198.697 200.171 193.577C200.353 193.733 200.537 193.885 200.722 194.037L200.723 194.037C200.848 194.141 200.974 194.244 201.099 194.348C200.452 198.35 199.378 202.271 197.895 206.044C197.497 207.102 197.013 208.179 196.524 209.27L196.524 209.27C195.441 211.681 194.329 214.16 194.035 216.651C193.982 217.099 194.607 217.287 194.889 217.005C196.923 214.968 198.113 211.566 199.136 208.641L199.136 208.641C199.341 208.054 199.54 207.487 199.737 206.954C201.192 203.217 202.023 199.266 202.195 195.259C203.163 196.05 204.144 196.824 205.136 197.58C205.057 198.077 204.971 198.572 204.861 199.061C204.728 199.386 204.604 199.713 204.48 200.04L204.479 200.044L204.443 200.139L204.369 200.333C201.859 206.236 199.591 212.279 200.136 218.813C200.179 219.33 201.03 219.544 201.119 218.946C201.747 214.154 202.696 209.408 203.96 204.743C204.484 203.145 204.951 202.066 205.323 201.209C205.8 200.107 206.118 199.372 206.194 198.373C206.343 198.484 206.495 198.592 206.646 198.7L206.771 198.79C206.828 198.831 206.885 198.872 206.942 198.913C206.915 199.294 206.887 199.69 206.884 199.703C206.343 202.699 205.434 205.598 204.526 208.495C203.405 212.072 202.284 215.647 201.856 219.398L201.852 219.416L201.854 219.417C201.853 219.427 201.851 219.437 201.85 219.447L201.847 219.464L201.844 219.481C201.84 219.504 201.836 219.527 201.834 219.549C201.773 220.113 202.689 220.224 202.817 219.682C203.268 217.775 203.934 215.931 204.601 214.087C205.134 212.612 205.667 211.137 206.091 209.628C206.924 206.605 207.528 203.524 207.9 200.411C207.945 200.161 207.968 199.908 207.969 199.654L208.042 199.706C208.363 199.932 208.682 200.158 209.005 200.379L208.998 200.476L208.99 200.576L208.99 200.576L208.99 200.579C208.987 200.621 208.984 200.655 208.983 200.677L208.981 200.693L208.98 200.702C208.287 204.876 207.813 209.084 207.559 213.307C207.174 215.81 207.087 218.349 207.301 220.871C207.322 221.092 207.48 221.274 207.695 221.328C207.126 222.914 206.931 224.609 207.125 226.283C207.195 226.77 208.001 226.75 208.09 226.283C208.685 223.481 209.542 220.741 210.65 218.099C210.491 220.147 210.527 222.206 210.755 224.247L210.754 224.269L210.758 224.269C210.76 224.29 210.762 224.311 210.764 224.332C210.766 224.355 210.769 224.379 210.772 224.402C210.853 224.99 211.72 224.798 211.755 224.269C211.978 220.888 212.138 217.504 212.236 214.118C213.601 210.928 214.526 207.568 214.986 204.129C215.157 204.227 215.332 204.319 215.506 204.412L215.506 204.412C215.63 204.478 215.753 204.544 215.875 204.611C215.875 204.613 215.874 204.615 215.873 204.616C215.872 204.618 215.872 204.619 215.871 204.62L215.87 204.621C215.869 204.623 215.867 204.625 215.866 204.626L215.865 204.629C215.865 204.63 215.864 204.631 215.864 204.633C215.456 206.449 215.22 208.299 215.158 210.159C215.067 210.907 214.973 211.655 214.88 212.403L214.88 212.405L214.88 212.407L214.88 212.408C214.269 217.322 213.657 222.247 213.357 227.171C213.361 227.371 213.484 227.549 213.669 227.626C213.854 227.703 214.067 227.663 214.211 227.524C214.806 226.691 215.112 225.686 215.08 224.663C215.293 222.597 215.479 220.528 215.652 218.459C215.772 217.019 215.828 215.533 215.884 214.035L215.884 214.034V214.034C215.897 213.69 215.91 213.346 215.923 213.001C216.127 211.511 216.43 210.034 216.733 208.556L216.733 208.555C216.947 207.508 217.162 206.46 217.342 205.406C217.362 205.416 217.382 205.427 217.402 205.438C217.424 205.45 217.445 205.462 217.467 205.473L217.468 205.474C217.514 205.499 217.559 205.525 217.606 205.549C217.519 205.953 217.435 206.367 217.337 207.103C216.343 212.605 216.4 218.246 217.507 223.727C217.639 224.301 218.454 224.134 218.49 223.594C218.597 221.954 218.395 220.333 218.194 218.71C218.044 217.505 217.895 216.299 217.871 215.083C217.879 212.195 218.073 209.31 218.452 206.447C218.453 206.438 218.491 206.239 218.537 206.006C218.88 206.174 219.229 206.335 219.578 206.497L219.647 206.529C219.715 206.957 219.808 207.684 219.813 207.742C219.847 208.072 219.881 208.684 219.909 209.196V209.196V209.196V209.197C219.934 209.651 219.954 210.026 219.967 210.056C220.145 214.841 219.441 219.627 218.744 224.373L218.744 224.375C218.588 225.438 218.432 226.498 218.286 227.557C218.201 228.173 219.096 228.468 219.251 227.823C220.713 221.749 221.283 215.495 220.946 209.258C220.953 208.744 220.928 208.231 220.87 207.721V207.719C220.87 207.718 220.827 207.417 220.768 207.058C221.485 207.374 222.214 207.671 222.943 207.969L222.944 207.969L223.002 207.993C223.062 208.409 223.131 208.824 223.228 209.232C223.228 209.25 223.228 209.267 223.23 209.284L223.616 211.311C223.6 211.346 223.588 211.382 223.58 211.42L223.574 211.479C223.533 211.539 223.507 211.606 223.496 211.677C223.324 212.711 223.129 213.755 222.932 214.807L222.932 214.807C222.058 219.486 221.157 224.309 222.112 228.964C222.219 229.483 222.927 229.394 223.077 228.964C223.629 227.388 223.599 225.47 223.57 223.621C223.555 222.673 223.54 221.743 223.605 220.887C223.764 218.763 223.989 216.645 224.228 214.528L225.435 220.877C225.502 221.229 225.566 221.582 225.629 221.935C226.094 224.517 226.557 227.093 228.35 229.124C228.7 229.521 229.288 229.094 229.186 228.637C228.854 227.151 228.39 225.707 227.925 224.263C227.342 222.448 226.758 220.634 226.44 218.74C225.865 215.277 225.102 211.847 224.155 208.467C225.309 208.926 226.455 209.377 227.595 209.818C227.605 209.862 227.621 209.904 227.641 209.944C228.326 211.167 228.933 212.432 229.458 213.732C229.687 214.385 229.896 215.042 230.086 215.704C230.95 219.425 230.768 223.321 230.588 227.19C230.519 228.662 230.451 230.129 230.44 231.582C230.447 231.828 230.632 232.032 230.875 232.065C231.119 232.098 231.351 231.95 231.423 231.715C232.699 226.323 232.559 220.693 231.017 215.37C230.62 213.632 229.972 211.962 229.095 210.409L229.203 210.452L229.274 210.48L229.445 210.547C229.615 210.613 229.786 210.68 229.952 210.747C230.056 210.789 230.162 210.834 230.268 210.879L230.269 210.879C230.345 210.911 230.421 210.943 230.496 210.975C231.167 211.951 231.754 212.982 232.253 214.056C233.772 217.507 234.646 221.206 234.833 224.97C234.866 225.943 234.868 226.913 234.869 227.88C234.872 230.6 234.875 233.297 235.597 235.972C235.67 236.207 235.901 236.354 236.144 236.321C236.388 236.288 236.572 236.084 236.58 235.839C237.285 228.07 237.394 219.83 232.957 213.155C232.753 212.686 232.543 212.218 232.326 211.754C233.101 212.093 233.885 212.448 234.677 212.816C235.283 214.523 235.388 214.88 235.72 216.008L235.72 216.009C235.775 216.197 235.837 216.408 235.909 216.65C237.079 220.655 237.776 224.783 237.983 228.95C238.032 229.547 238.06 230.174 238.089 230.817C238.212 233.574 238.348 236.604 240.147 238.667C240.291 238.806 240.504 238.845 240.689 238.769C240.874 238.692 240.996 238.513 241.001 238.313C240.824 236.549 240.774 234.746 240.724 232.939C240.649 230.226 240.574 227.506 240.069 224.9C239.173 220.943 237.821 217.104 236.039 213.459C236.961 213.901 237.883 214.353 238.796 214.814C239.312 216.621 239.761 218.511 240.216 220.424C241.445 225.589 242.715 230.927 245.428 235.278C245.715 235.737 246.551 235.445 246.343 234.892C245.322 232.181 244.592 229.378 243.863 226.577C242.886 222.822 241.909 219.071 240.234 215.55C241.375 216.14 242.487 216.732 243.555 217.315C244.528 220.467 245.682 223.56 247.013 226.578L247.086 226.743L247.086 226.743C248.335 229.559 249.618 232.451 251.91 234.577C252.312 234.95 253.013 234.467 252.696 233.97C250.693 230.869 249.013 227.57 247.682 224.127C247.403 223.394 247.155 222.649 246.907 221.904L246.906 221.904C246.83 221.673 246.753 221.443 246.675 221.213C250.735 227.52 255.293 233.497 261.211 238.204C261.703 238.595 262.405 237.941 261.919 237.497C258.239 234.155 254.949 230.41 252.11 226.331C251.558 225.533 251.018 224.728 250.478 223.924L250.478 223.923L250.478 223.923L250.477 223.922L250.477 223.922L250.477 223.921L250.476 223.921L250.476 223.92L250.476 223.92L250.475 223.919L250.475 223.919L250.475 223.918L250.474 223.918L250.474 223.917L250.474 223.917L250.473 223.916C249.48 222.435 248.488 220.957 247.427 219.53L259.465 229.199C260.848 230.587 262.144 232.058 263.348 233.603C263.742 234.112 264.445 233.399 264.056 232.896C263.019 231.571 261.914 230.303 260.744 229.095C260.729 228.987 260.673 228.889 260.587 228.823L260.183 228.499C256.223 224.653 251.942 221.153 247.385 218.037C253.649 219.688 259.606 222.335 265.028 225.879C265.095 225.933 265.164 225.984 265.232 226.036C265.314 226.097 265.395 226.158 265.474 226.223C265.968 226.63 266.68 225.926 266.182 225.516ZM233.591 150.27C234.462 150.32 235.363 150.35 236.31 150.38C236.509 151.248 236.726 152.128 236.971 153C235.736 152.233 234.601 151.316 233.591 150.27ZM232.118 148.607C233.448 148.744 234.766 148.973 236.063 149.294C235.867 148.424 235.505 147.102 235.253 146.18L235.253 146.18L235.193 145.962C235.15 145.946 235.106 145.93 235.062 145.914L234.995 145.89C234.919 145.863 234.842 145.836 234.767 145.807C233.55 145.342 232.341 144.849 231.132 144.354C230.208 143.977 229.275 143.597 228.334 143.228C229.503 145.084 230.766 146.88 232.118 148.607ZM241.831 141.856C240.79 143.348 239.61 144.797 237.921 145.291C237.882 145.306 237.845 145.325 237.811 145.349C237.27 145.145 236.738 144.942 236.203 144.737C238.065 143.747 239.941 142.787 241.831 141.856ZM237.056 137.061C236.013 137.607 234.982 138.179 233.963 138.777C233.72 138.919 233.478 139.063 233.237 139.206C231.499 140.24 229.791 141.256 227.899 141.605C229.165 142.057 230.387 142.51 231.435 142.908C233.629 141.294 235.53 139.316 237.056 137.061ZM227.302 144.386L227.303 144.387C228.005 145.685 228.733 147.031 229.456 148.155C228.349 147.903 227.289 147.477 226.315 146.893C224.106 145.551 222.035 143.941 219.978 142.341C219.189 141.727 218.402 141.115 217.61 140.52C217.595 140.512 217.579 140.504 217.562 140.498C217.526 140.46 217.487 140.426 217.447 140.392C217.42 140.369 217.393 140.346 217.366 140.321C218.27 140.409 219.174 140.528 220.072 140.693C222.17 141.105 224.23 141.688 226.231 142.436C226.577 143.046 226.934 143.706 227.299 144.38L227.3 144.381L227.3 144.382L227.302 144.385L227.302 144.386ZM196.159 186.186C197.962 184.68 199.645 183.038 201.196 181.275L201.196 181.275C200.792 181.445 200.362 181.616 199.918 181.793L199.917 181.793L199.917 181.793C197.661 182.691 195.047 183.731 193.612 185.5C194.086 185.971 194.564 186.438 195.044 186.903C195.063 186.883 195.084 186.865 195.107 186.849C195.476 186.639 195.819 186.414 196.159 186.186ZM180.959 164.788L180.959 164.788C179.308 165.151 177.681 165.508 176.334 166.564C176.188 166.395 176.042 166.225 175.895 166.055L175.763 165.901C175.798 165.889 175.831 165.873 175.862 165.853C177.997 164.018 180.576 163.433 183.186 162.842C184.266 162.597 185.351 162.351 186.412 162.015C187.033 161.816 187.643 161.584 188.24 161.32C188.395 161.575 188.569 161.814 188.746 162.051C187.021 162.798 185.282 163.507 183.516 164.12V164.12C182.681 164.41 181.817 164.6 180.959 164.788L180.959 164.788L180.959 164.788L180.959 164.788L180.959 164.788L180.959 164.788ZM179.353 160.836C177.587 161.84 175.819 162.845 174.403 164.306L174.502 164.422L174.617 164.559L174.617 164.559L174.617 164.56L174.618 164.56L174.618 164.56L174.618 164.561L174.619 164.561L174.619 164.562L174.619 164.562L174.62 164.562L174.62 164.563C174.713 164.674 174.806 164.784 174.899 164.892C176.227 163.226 178.245 162.633 180.292 162.032C180.514 161.967 180.735 161.902 180.956 161.835C183.133 161.18 185.271 160.422 187.378 159.584C187.132 158.995 186.905 158.392 186.706 157.774C186.536 157.435 186.377 157.093 186.219 156.75L186.219 156.75L186.218 156.75L186.218 156.75L186.218 156.749L186.218 156.749L186.218 156.749L186.218 156.749L186.218 156.749L186.218 156.749L186.218 156.749L186.218 156.749L186.218 156.748L186.218 156.748L186.218 156.748L186.218 156.748L186.218 156.748L186.217 156.748L186.217 156.748C186.121 156.54 186.025 156.331 185.926 156.124C185.604 156.438 185.275 156.741 184.936 157.034C184.974 157.133 185.012 157.232 185.05 157.331L185.051 157.333L185.051 157.333C185.182 157.673 185.313 158.013 185.426 158.362C185.607 158.921 184.803 159.21 184.511 158.747C184.39 158.555 184.277 158.359 184.163 158.164C184.098 158.05 184.032 157.937 183.965 157.824C183.323 158.326 182.658 158.803 181.969 159.255L181.976 159.342L181.976 159.342C182.017 159.852 182.058 160.362 182.079 160.876C182.104 161.46 181.258 161.529 181.096 161.009C180.991 160.671 180.903 160.33 180.819 159.988C180.335 160.277 179.844 160.556 179.353 160.836L179.353 160.836L179.353 160.836ZM173.358 163.066C174.293 161.397 175.463 159.871 176.833 158.536C177.316 158.073 177.834 157.653 178.356 157.238C178.645 157.812 178.97 158.368 179.328 158.901L178.544 159.448C176.746 160.55 175.103 161.886 173.658 163.422C173.618 163.374 173.577 163.327 173.537 163.279C173.478 163.209 173.418 163.138 173.358 163.066ZM180.202 141.226C180.196 141.206 180.191 141.186 180.188 141.166V141.166C180.099 141.165 180.01 141.165 179.922 141.165C179.806 141.165 179.691 141.165 179.575 141.164C179.766 141.879 179.95 142.599 180.135 143.319L180.135 143.319L180.135 143.319L180.135 143.319L180.135 143.319L180.136 143.32L180.136 143.32L180.136 143.32L180.136 143.321L180.136 143.321L180.136 143.321L180.136 143.321L180.136 143.322L180.136 143.322L180.136 143.322L180.136 143.322L180.136 143.323L180.136 143.323C180.693 145.488 181.251 147.662 181.968 149.766C182.454 151.19 183.053 152.562 183.653 153.935L183.654 153.936C183.871 154.434 184.089 154.933 184.302 155.434L185.277 154.755C183.345 150.546 181.73 146.2 180.446 141.752C180.407 141.669 180.369 141.586 180.331 141.503C180.289 141.411 180.246 141.318 180.202 141.226ZM178.197 141.141C178.873 146.448 180.529 151.584 183.08 156.286L181.755 157.21C181.64 156.305 181.502 155.405 181.33 154.513C181.476 154.277 181.411 153.967 181.183 153.809C180.459 150.369 179.314 147.031 177.775 143.87C177.346 142.933 176.887 142.01 176.396 141.1C176.996 141.117 177.597 141.131 178.197 141.141L178.197 141.141ZM176.802 144.154C176.286 143.106 175.741 142.069 175.134 141.056L175.134 141.056C174.77 141.042 174.407 141.028 174.043 141.01C175.357 145.748 176.956 150.402 178.831 154.946C179.173 154.711 179.523 154.486 179.881 154.271C179.734 153.134 179.522 152.007 179.246 150.894C178.633 148.579 177.815 146.324 176.802 144.154ZM180.091 155.808C180.194 156.585 180.304 157.36 180.435 158.129L180.258 158.252C180.043 157.773 179.838 157.29 179.632 156.807L179.632 156.807L179.632 156.806L179.632 156.806L179.631 156.806C179.568 156.657 179.505 156.508 179.441 156.359C179.661 156.179 179.879 155.997 180.091 155.808L180.091 155.808ZM189.516 161.175C189.574 161.331 189.632 161.487 189.686 161.644L189.686 161.644C190.872 161.118 192.048 160.574 193.219 160.024C193.076 159.645 192.935 159.263 192.794 158.882L192.687 158.594C191.65 159.419 190.537 160.144 189.363 160.758C189.412 160.898 189.464 161.036 189.516 161.175ZM191.231 143.179C190.702 142.592 190.175 142.005 189.649 141.419C189.738 141.329 189.823 141.236 189.908 141.143C189.951 141.095 189.995 141.047 190.04 140.999C190.236 140.992 190.431 140.985 190.627 140.978L190.976 140.965C190.976 140.977 190.973 140.987 190.97 140.997C190.966 141.011 190.962 141.026 190.965 141.044C191.051 141.757 191.14 142.468 191.231 143.179L191.231 143.179ZM185.21 141.297C185.179 141.246 185.159 141.189 185.152 141.13L185.152 141.13C184.946 141.134 184.741 141.137 184.536 141.14L184.213 141.144C184.983 144.009 185.98 146.808 187.193 149.514C187.824 150.782 188.566 151.989 189.309 153.195C189.99 154.303 190.672 155.411 191.268 156.567C191.515 157.046 190.845 157.641 190.482 157.173C190.469 157.155 190.456 157.137 190.443 157.12L190.443 157.119L190.432 157.104C190.423 157.092 190.415 157.081 190.407 157.07L190.404 157.072L190.391 157.049C186.762 152.369 184.215 146.942 182.934 141.16C182.456 141.164 181.977 141.166 181.498 141.167C181.67 141.56 181.842 141.952 182.014 142.344L182.015 142.346L182.015 142.347L182.016 142.349L182.017 142.351L182.017 142.352C183.091 144.801 184.166 147.252 185.122 149.75C185.585 150.851 186.024 151.961 186.464 153.072L186.464 153.072C186.553 153.295 186.641 153.519 186.73 153.742L186.898 153.624C187.405 153.271 187.832 154.006 187.505 154.41C187.443 154.487 187.376 154.558 187.309 154.629L187.309 154.629C187.257 154.685 187.205 154.741 187.155 154.799C187.701 156.198 188.218 157.609 188.731 159.022C189.92 158.527 191.097 158.005 192.263 157.454C191.257 154.736 190.243 152.013 189.033 149.384C188.595 148.434 188.098 147.51 187.601 146.586C186.688 144.89 185.777 143.197 185.239 141.347L185.229 141.33L185.223 141.32L185.217 141.31L185.21 141.297ZM184.642 130.628L184.645 130.623C187.709 128.565 189.547 127.503 190.835 126.759C191.582 126.328 192.144 126.003 192.653 125.653C188.398 129.663 184.472 134.002 181.958 139.338C181.337 139.331 180.715 139.321 180.093 139.307C180.776 136.404 182.443 133.914 184.088 131.458C184.273 131.181 184.459 130.904 184.642 130.628ZM178.905 139.274C179.377 137.321 180.036 135.418 180.871 133.591L180.871 133.591C179.325 134.935 177.837 136.357 176.349 137.778L176.308 137.817C176.098 138.261 175.873 138.699 175.64 139.134C176.729 139.195 177.817 139.241 178.905 139.274ZM178.46 127.668C177.149 130.429 176.059 133.29 175.201 136.223C174.483 137.079 173.852 138.003 173.316 138.983C172.957 138.956 172.598 138.927 172.24 138.897C173.801 134.892 175.893 131.115 178.46 127.668L178.46 127.668ZM167.66 140.546C167.662 140.538 167.665 140.53 167.664 140.522L167.664 140.522C164.194 140.162 160.751 139.576 157.357 138.767C161.173 147.269 166.853 155.158 172.559 162.094C173.803 159.652 175.554 157.504 177.694 155.791C177.196 154.602 176.775 153.37 176.364 152.168C176.226 151.766 176.09 151.367 175.952 150.975C174.795 147.677 173.799 144.331 172.923 140.949C172.284 140.913 171.646 140.871 171.008 140.824C172.344 143.842 173.373 146.986 174.078 150.21C174.149 150.541 174.243 150.931 174.347 151.36L174.347 151.36C174.892 153.61 175.699 156.939 174.699 158.526C174.595 158.695 174.401 158.787 174.203 158.761C174.006 158.736 173.842 158.597 173.785 158.407C173.404 156.833 173.197 155.224 172.989 153.615L172.989 153.615L172.989 153.615L172.989 153.615L172.989 153.615L172.989 153.614L172.989 153.614C172.814 152.26 172.639 150.906 172.361 149.57C171.724 146.567 170.874 143.613 169.816 140.731C169.492 140.703 169.168 140.675 168.845 140.645C169.002 141.571 169.154 142.499 169.306 143.427L169.306 143.427L169.306 143.428L169.306 143.428L169.306 143.428L169.306 143.428L169.306 143.429L169.306 143.429L169.306 143.429L169.306 143.429L169.306 143.429L169.306 143.429L169.306 143.429C169.696 145.816 170.087 148.205 170.567 150.571C170.877 152.095 171.321 153.582 171.766 155.069C172.189 156.485 172.612 157.902 172.919 159.352C172.977 159.591 172.853 159.837 172.626 159.933C172.399 160.029 172.136 159.946 172.005 159.737C169.241 155.446 168.664 149.871 168.123 144.65L168.123 144.65L168.123 144.65L168.123 144.65L168.123 144.65C167.979 143.256 167.837 141.887 167.657 140.574C167.655 140.564 167.658 140.555 167.66 140.546ZM176.713 180.102C176.863 179.175 177.069 178.257 177.329 177.355C177.478 176.856 177.632 176.362 177.786 175.869C178.198 174.55 178.607 173.24 178.889 171.884C179.614 172.711 180.348 173.542 181.09 174.377C179.399 176.096 177.929 178.02 176.713 180.102ZM191.782 187.53L191.941 187.226L191.941 187.226C192.045 187.006 192.146 186.786 192.248 186.566L192.248 186.566L192.248 186.566L192.248 186.564L192.345 186.354C192.305 186.314 192.264 186.275 192.223 186.235L192.222 186.235L192.222 186.234C192.176 186.19 192.131 186.147 192.086 186.102C190.157 188.94 188.696 192.069 187.759 195.369C189.063 192.738 190.423 190.134 191.782 187.53L191.782 187.53ZM194.777 199.975C194.769 199.696 194.765 199.417 194.777 199.135C194.996 196.277 195.839 193.503 197.245 191.006L197.292 191.048L197.338 191.09C197.28 191.237 197.233 191.388 197.197 191.542C196.621 193.086 196.208 194.7 195.794 196.316C195.479 197.545 195.164 198.774 194.777 199.975L194.777 199.975ZM195.894 203.923C196.179 203.172 196.464 202.419 196.731 201.66L196.731 201.66C197.6 199.181 199.012 193.907 199.3 192.817C198.924 192.489 198.549 192.159 198.176 191.827C197.908 195.12 197.134 198.353 195.881 201.411C195.647 202.003 195.383 202.59 195.11 203.175C195.211 203.925 195.296 204.678 195.325 205.44C195.511 204.934 195.702 204.429 195.894 203.924L195.894 203.923L195.894 203.923ZM211.384 202.853C211.393 204.14 211.385 205.425 211.377 206.711L211.376 206.812C211.243 208.965 211.11 211.119 210.977 213.272C210.63 214.151 210.276 215.029 209.913 215.904C209.684 216.46 209.437 217.021 209.187 217.589L209.187 217.589L209.187 217.589C208.896 218.25 208.601 218.92 208.327 219.596C208.347 217.595 208.421 215.597 208.54 213.604C208.588 213.207 208.637 212.811 208.686 212.417L208.686 212.416C208.73 212.064 208.774 211.712 208.816 211.361C209.226 207.966 209.736 204.584 210.245 201.202C210.381 201.293 210.518 201.384 210.654 201.476L210.654 201.476C210.892 201.636 211.13 201.796 211.372 201.95C211.379 202.144 211.384 202.338 211.389 202.533C211.391 202.626 211.394 202.719 211.396 202.813C211.395 202.828 211.384 202.837 211.384 202.853L211.384 202.853ZM212.349 208.986C212.346 209.186 212.343 209.386 212.34 209.587L212.34 209.587C213.025 207.612 213.576 205.594 213.988 203.545C213.533 203.277 213.081 203.002 212.63 202.725L212.377 206.812C212.373 207.537 212.361 208.261 212.349 208.986Z" fill="#2B5E57"/>
<circle cx="274.934" cy="170.238" r="1.40395" fill="white"/>
<circle cx="248.672" cy="169.23" r="1.32409" fill="white"/>
<ellipse cx="245.067" cy="187.01" rx="1.73647" ry="1.73587" fill="white"/>
<circle cx="267.665" cy="121.589" r="1.2751" fill="white"/>
<ellipse cx="290.404" cy="199.364" rx="1.62549" ry="1.62492" fill="white"/>
<circle cx="232.516" cy="97.2407" r="1.11324" fill="white"/>
<circle cx="248.088" cy="250.926" r="1.40985" fill="white"/>
<ellipse cx="187.607" cy="244.366" rx="2.14565" ry="2.14491" fill="white"/>
<ellipse cx="142.266" cy="211.734" rx="1.5495" ry="1.54896" fill="white"/>
<ellipse cx="160.42" cy="198.741" rx="1.53832" ry="1.53779" fill="white"/>
<ellipse cx="208.562" cy="103.028" rx="2.07442" ry="2.0737" fill="white"/>
<circle cx="222.278" cy="166.16" r="1.42645" fill="white"/>
<circle cx="160.182" cy="122.329" r="1.21763" fill="white"/>
<circle cx="277.183" cy="146.492" r="1.27281" fill="white"/>
<circle cx="181.735" cy="102.878" r="1.34767" fill="white"/>
<circle cx="183.686" cy="223.384" r="1.148" fill="white"/>
<ellipse cx="135.522" cy="182.387" rx="1.63297" ry="1.63241" fill="white"/>
<ellipse cx="162.73" cy="244.417" rx="1.46782" ry="1.46731" fill="white"/>
<ellipse cx="161.779" cy="217.137" rx="1.72527" ry="1.72467" fill="white"/>
<circle cx="218.868" cy="241.752" r="1.37365" fill="white"/>
<circle cx="149.657" cy="162.835" r="1.37365" fill="white"/>
<circle cx="278.161" cy="221.527" r="1.37365" fill="white"/>
<circle cx="269.859" cy="192.974" r="1.37365" fill="white"/>
<circle cx="293.448" cy="165.795" r="1.37365" fill="white"/>
<circle cx="244.073" cy="119.212" r="1.37365" fill="white"/>
<ellipse cx="195.999" cy="88.7201" rx="2.42453" ry="2.42369" fill="white"/>
</svg>
