<svg width="478" height="307" viewBox="0 0 478 307" fill="none" xmlns="http://www.w3.org/2000/svg">
<rect x="168.585" y="73.647" width="104.052" height="146.4" fill="#F9E3C5"/>
<path d="M180.768 73.6885V219.531" stroke="#161616" stroke-width="5"/>
<path d="M200.767 73.6885V219.531" stroke="#161616" stroke-width="5"/>
<path d="M220.593 73.5166V219.359" stroke="#161616" stroke-width="5"/>
<path d="M240.591 73.5166V219.359" stroke="#161616" stroke-width="5"/>
<path d="M260.59 73.5166V219.359" stroke="#161616" stroke-width="5"/>
<rect x="80.2021" y="196.287" width="149.851" height="92.5808" fill="#F9E3C5"/>
<rect x="166.256" y="196.29" width="63.7949" height="92.5757" fill="#C4A16A"/>
<path d="M90.4661 196.287L80.2021 211.145V196.287H90.4661V196.287Z" fill="#7FAD9C"/>
<path d="M119.119 196.287L80.2021 252.62V236.032L107.653 196.287H119.119V196.287Z" fill="#7FAD9C"/>
<path d="M147.773 196.287L83.8239 288.868H80.2021V277.507L136.307 196.287H147.773V196.287Z" fill="#7FAD9C"/>
<path d="M166.255 196.29V211.028L112.48 288.865H101.01L164.976 196.29H166.255V196.29Z" fill="#7FAD9C"/>
<path d="M166.256 235.907V252.492L141.128 288.865H129.68L166.256 235.907V235.907Z" fill="#7FAD9C"/>
<path d="M166.256 277.389V288.865H158.326L166.256 277.389V277.389Z" fill="#7FAD9C"/>
<path d="M230.053 226.52V243.119L198.45 288.868H186.984L230.053 226.52V226.52Z" fill="#161616"/>
<path d="M230.054 268.007V284.594L227.093 288.868H215.639L230.054 268.007V268.007Z" fill="#161616"/>
<path d="M176.436 196.29L166.255 211.028V196.29H176.436V196.29Z" fill="#2B5E57"/>
<path d="M205.082 196.29L166.255 252.492V235.907L193.623 196.29H205.082V196.29Z" fill="#2B5E57"/>
<path d="M230.05 196.29V201.618L169.795 288.865H166.255V277.389L222.281 196.29H230.05V196.29Z" fill="#2B5E57"/>
<path d="M230.053 226.52V243.119L198.45 288.868H186.984L230.053 226.52V226.52Z" fill="#2B5E57"/>
<path d="M230.054 268.007V284.594L227.093 288.868H215.639L230.054 268.007V268.007Z" fill="#2B5E57"/>
<rect x="235.778" y="143.642" width="96.8461" height="76.2273" fill="#C4A16A"/>
<ellipse cx="297.676" cy="153.697" rx="2.70538" ry="2.69972" fill="#161616"/>
<ellipse cx="248.334" cy="159.744" rx="2.70538" ry="2.69972" fill="#161616"/>
<ellipse cx="319.967" cy="192.141" rx="2.70538" ry="2.69972" fill="#161616"/>
<ellipse cx="290.826" cy="176.457" rx="2.70538" ry="2.69972" fill="#161616"/>
<ellipse cx="262.375" cy="178.616" rx="2.70538" ry="2.69972" fill="#161616"/>
<ellipse cx="272.247" cy="157.152" rx="2.70538" ry="2.69972" fill="#161616"/>
<ellipse cx="299.516" cy="208.987" rx="2.70538" ry="2.69972" fill="#161616"/>
<ellipse cx="326.196" cy="213.429" rx="2.70538" ry="2.69972" fill="#161616"/>
<ellipse cx="245.196" cy="193.221" rx="2.70538" ry="2.69972" fill="#161616"/>
<ellipse cx="259.263" cy="208.987" rx="2.70538" ry="2.69972" fill="#161616"/>
<ellipse cx="277.55" cy="199.808" rx="2.70538" ry="2.69972" fill="#161616"/>
<ellipse cx="319.534" cy="167.411" rx="2.70538" ry="2.69972" fill="#161616"/>
<rect x="112.683" y="122.705" width="94.8093" height="73.5479" fill="#C64D3B"/>
<path d="M159.86 196.217L159.708 122.661" stroke="#C4A16A" stroke-width="7"/>
<path d="M112.707 159.288L207.478 159.292" stroke="#C4A16A" stroke-width="7"/>
<rect x="199.259" y="219.8" width="144.674" height="69.0976" fill="#C64D3B"/>
<path d="M292.795 219.902V288.283" stroke="white"/>
<ellipse cx="203.387" cy="227.799" rx="1.5293" ry="1.5261" fill="white"/>
<ellipse cx="218.207" cy="239.958" rx="1.5293" ry="1.5261" fill="white"/>
<ellipse cx="236.245" cy="229.273" rx="1.5293" ry="1.5261" fill="white"/>
<ellipse cx="213.355" cy="260.643" rx="1.5293" ry="1.5261" fill="white"/>
<ellipse cx="261.719" cy="260.591" rx="1.5293" ry="1.5261" fill="white"/>
<ellipse cx="261.033" cy="279.75" rx="1.5293" ry="1.5261" fill="white"/>
<ellipse cx="283.501" cy="270.223" rx="1.5293" ry="1.5261" fill="white"/>
<ellipse cx="317.467" cy="281.224" rx="1.5293" ry="1.5261" fill="white"/>
<ellipse cx="333.764" cy="270.171" rx="1.5293" ry="1.5261" fill="white"/>
<ellipse cx="305.652" cy="266.117" rx="1.5293" ry="1.5261" fill="white"/>
<ellipse cx="207.5" cy="279.013" rx="1.5293" ry="1.5261" fill="white"/>
<ellipse cx="235.876" cy="272.381" rx="1.5293" ry="1.5261" fill="white"/>
<ellipse cx="243.628" cy="249.116" rx="1.5293" ry="1.5261" fill="white"/>
<ellipse cx="279.071" cy="246.274" rx="1.5293" ry="1.5261" fill="white"/>
<ellipse cx="333.712" cy="235.168" rx="1.5293" ry="1.5261" fill="white"/>
<ellipse cx="303.438" cy="245.485" rx="1.5293" ry="1.5261" fill="white"/>
<ellipse cx="259.873" cy="234.431" rx="1.5293" ry="1.5261" fill="white"/>
<ellipse cx="282.394" cy="226.694" rx="1.5293" ry="1.5261" fill="white"/>
<ellipse cx="322.267" cy="256.17" rx="1.5293" ry="1.5261" fill="white"/>
<ellipse cx="314.514" cy="230.378" rx="1.5293" ry="1.5261" fill="white"/>
<path d="M199.331 253.585L343.804 253.582" stroke="white"/>
<path d="M285.981 143.44V219.464" stroke="#161616"/>
<path d="M235.877 181.768H332.648" stroke="#161616"/>
<rect x="163.238" y="72.9854" width="114.747" height="16.4025" fill="#161616"/>
<rect x="233.117" y="138.856" width="101.141" height="13.3073" fill="#161616"/>
<path d="M334.202 133.129L375.894 139.311L452.038 279.195L426.408 294.573L426.318 294.589L380.036 294.914L379.943 294.737L302.46 149.619L333.987 133.237L334.202 133.129V133.129Z" fill="#7FAD9C"/>
<path d="M452.035 279.2L426.407 294.578L426.317 294.588L380.041 294.917L379.941 294.738L302.457 149.622L333.985 133.237L334.144 133.157L411.138 277.224L451.925 279.001L452.035 279.2V279.2Z" fill="#2B5E57"/>
<path d="M340.532 222.22L372.866 205.43L413.507 206.547" stroke="#161616"/>
<path d="M403.082 295.201L433.008 278.223L356.923 135.97" stroke="#161616"/>
<path d="M452.035 279.2L426.407 294.578L426.317 294.588L403.869 294.747L380.181 294.917L411.128 277.204L372.791 205.475L341.074 221.94L302.457 149.622L333.985 133.236L334.144 133.156L334.204 133.126L357.233 136.539L375.891 139.313L412.468 206.512L451.925 279L452.035 279.2V279.2Z" fill="#7FAD9C"/>
<path d="M334.144 133.156L372.791 205.475L341.074 221.94L302.457 149.622L333.985 133.236L334.144 133.156V133.156Z" fill="#2B5E57"/>
<path d="M452.036 279.2L426.408 294.578L426.318 294.588L403.87 294.747L380.182 294.917L411.129 277.204L411.139 277.224L432.987 278.172L451.926 279L452.036 279.2V279.2Z" fill="#161616"/>
<path d="M414.581 207.065L372.862 205.435L372.792 205.474L341.074 221.94L340.534 222.219" stroke="#161616"/>
<path d="M403.082 295.201L433.008 278.223L356.923 135.97" stroke="#161616"/>
<path d="M267.634 96.9497C264.17 97.5942 260.889 98.9857 258.019 101.027C255.762 102.459 254.051 104.606 253.161 107.123C252.432 109.668 253.287 112.792 255.624 114.042C257.712 114.891 260.103 114.457 261.758 112.93L267.634 96.9497Z" fill="#C4A16A"/>
<path d="M306.411 95.2607C308.628 96.7327 311.612 98.386 313.814 99.8806C322.495 105.774 322.105 109.089 321.884 110.285C321.367 113.096 318.357 115.349 314.097 114.271L306.411 95.2607Z" fill="#C4A16A"/>
<path d="M314.135 113.693C315.466 129.358 303.327 138.604 287.919 138.604C272.511 138.604 261.193 129.976 261.193 114.224C261.193 98.4721 272.403 87.6512 286.467 86.6115C300.833 85.5495 312.76 97.5009 314.135 113.693Z" fill="#C4A16A"/>
<path d="M306.95 95.6104C311.148 100.759 313.656 107.072 314.135 113.693" stroke="#161616" stroke-linecap="round"/>
<path d="M261.193 114.224C261.076 107.71 263.25 101.36 267.338 96.2793" stroke="#161616" stroke-linecap="round"/>
<ellipse cx="270.315" cy="61.6002" rx="5.86881" ry="5.85652" fill="#C4A16A"/>
<ellipse cx="303.374" cy="60.4288" rx="5.86881" ry="5.85652" fill="#C4A16A"/>
<ellipse cx="287.253" cy="75.4414" rx="21.2103" ry="18.7133" fill="#C4A16A"/>
<ellipse cx="274.887" cy="71.1672" rx="1.21616" ry="1.21361" fill="#161616"/>
<ellipse cx="298.097" cy="71.1672" rx="1.21616" ry="1.21361" fill="#161616"/>
<path d="M279.681 74.5852C281.408 72.9666 283.72 72.1173 286.087 72.2319C288.137 72.1629 290.154 72.7694 291.825 73.9577C294.909 76.3127 296.142 80.3692 294.89 84.0375C294.261 85.8025 293.107 87.5972 289.86 88.7049C286.755 89.7638 281.254 89.7109 278.62 85.9594C277.75 84.7213 275.607 78.7918 279.681 74.5852Z" fill="#F9E3C5"/>
<path d="M286.667 75.2213C285.58 75.0233 284.457 75.2086 283.492 75.7454C282.917 76.0662 282.622 76.726 282.767 77.3672C283.04 78.1114 284.018 78.2472 284.813 78.2601L286.316 78.2846C286.827 78.3391 287.343 78.2518 287.808 78.0323C288.314 77.7187 288.57 77.1231 288.449 76.5409C288.162 75.2949 286.667 75.2213 286.667 75.2213Z" fill="#161616"/>
<path d="M285.532 78.4844C285.599 79.9193 285.58 81.3569 285.476 82.7896C285.452 83.0891 285.378 83.3825 285.258 83.6579C284.615 84.5288 283.596 85.0426 282.512 85.0419" stroke="#161616" stroke-linecap="round"/>
<path d="M285.517 82.1108C285.518 82.8534 285.833 83.5611 286.384 84.0597C286.935 84.5583 287.672 84.8015 288.413 84.7295" stroke="#161616" stroke-linecap="round"/>
<ellipse cx="288.425" cy="116.23" rx="14.6322" ry="14.3373" fill="#F9E3C5"/>
<ellipse cx="269.668" cy="128.177" rx="10.2323" ry="10.552" fill="#C4A16A"/>
<ellipse cx="307.706" cy="128.177" rx="10.2323" ry="10.552" fill="#C4A16A"/>
<path d="M262.282 120.874C264.181 118.808 266.859 117.63 269.668 117.625C275.412 117.72 279.993 122.444 279.9 128.177C279.914 131.247 278.602 134.175 276.301 136.212" stroke="#161616" stroke-linecap="round"/>
<path d="M300.704 135.871C298.628 133.849 297.462 131.073 297.474 128.177C297.381 122.444 301.962 117.72 307.706 117.625C309.754 117.624 311.751 118.254 313.427 119.427" stroke="#161616" stroke-linecap="round"/>
<path fill-rule="evenodd" clip-rule="evenodd" d="M24.2727 293.632C24.2711 293.62 24.2687 293.609 24.2656 293.597L28.8204 210.097C28.8216 210.059 28.8264 210.021 28.8346 209.984C28.8465 209.927 28.8709 209.873 28.9059 209.827C28.9291 209.778 28.9631 209.734 29.0054 209.699C29.0843 209.62 29.1866 209.568 29.2973 209.55C29.3362 209.536 29.3771 209.529 29.4183 209.529H29.4611L46.6843 208.549L46.1577 206.652C46.1521 206.629 46.1497 206.605 46.1506 206.581C46.1487 206.569 46.1512 206.556 46.1577 206.546C46.1513 206.517 46.1564 206.486 46.1719 206.461C46.1829 206.427 46.1997 206.396 46.2216 206.368C46.234 206.352 46.2484 206.338 46.2644 206.326C46.2809 206.312 46.3004 206.302 46.3214 206.297L46.3854 206.276C46.411 206.27 46.4374 206.267 46.4637 206.269C46.4708 206.262 46.478 206.262 46.4922 206.262L118.766 215.311H118.802C118.957 215.309 119.108 215.367 119.221 215.474C119.331 215.584 119.395 215.731 119.399 215.886L123.008 295.813C123.011 295.941 122.976 296.067 122.908 296.175C122.874 296.221 122.836 296.264 122.794 296.303C122.748 296.339 122.698 296.37 122.645 296.395L97.9202 306.95H97.8988C97.8682 306.967 97.8341 306.977 97.7992 306.979C97.758 306.993 97.7146 307 97.671 307C97.6564 307 97.6418 306.998 97.6282 306.993C97.6147 306.993 97.6012 306.993 97.5879 306.99C97.5824 306.989 97.5769 306.987 97.5714 306.986L24.7709 294.222L24.6856 294.194C24.6671 294.185 24.648 294.178 24.6286 294.172C24.6206 294.172 24.6126 294.168 24.6033 294.163C24.5961 294.159 24.5881 294.154 24.5787 294.151C24.5583 294.145 24.5422 294.129 24.536 294.108C24.5162 294.106 24.4981 294.096 24.4863 294.08L24.4578 294.052L24.4008 294.002V293.995C24.3965 293.988 24.3925 293.981 24.3886 293.975C24.3734 293.95 24.3609 293.929 24.344 293.895C24.3312 293.882 24.3236 293.864 24.3224 293.846C24.3182 293.841 24.3165 293.837 24.3143 293.831C24.3128 293.827 24.3111 293.823 24.3084 293.817C24.3033 293.817 24.3019 293.814 24.2989 293.807C24.2977 293.804 24.2962 293.8 24.2941 293.796V293.753C24.29 293.75 24.2875 293.744 24.287 293.739C24.2882 293.717 24.2857 293.696 24.2799 293.675C24.2799 293.672 24.2787 293.667 24.2772 293.66C24.2752 293.652 24.2727 293.641 24.2727 293.632ZM48.834 231.292C48.7856 231.666 48.7618 232.043 48.7627 232.421C48.7657 236.853 52.0658 240.593 56.4706 241.157L70.7831 242.99C74.3457 243.446 77.8298 241.702 79.5939 238.579C80.1568 237.589 80.5195 236.498 80.6615 235.369C80.7098 234.989 80.7336 234.607 80.7327 234.225C80.7292 229.796 77.4276 226.06 73.0249 225.503L60.2924 223.869L58.7195 223.67C53.8813 223.052 49.4565 226.464 48.834 231.292Z" fill="#C4A16A"/>
<path d="M29.1576 209.82C29.1499 209.979 29.2657 210.117 29.4236 210.137L30.033 210.215L69.8485 215.437L101.812 219.623L102.26 219.681H102.299C102.338 219.682 102.378 219.675 102.415 219.662L103.038 219.39H103.051L107.875 217.307L118.19 215.993L118.793 215.916C118.946 215.897 119.061 215.766 119.059 215.612C119.059 215.47 118.963 215.347 118.825 215.314C118.819 215.314 118.812 215.307 118.806 215.307H118.767L46.4883 206.268C46.4536 206.264 46.4185 206.266 46.3846 206.275L46.3262 206.294C46.3055 206.302 46.2859 206.313 46.2679 206.326C46.2512 206.34 46.236 206.355 46.2225 206.372C46.2014 206.4 46.184 206.43 46.1706 206.462C46.1564 206.488 46.1519 206.518 46.1578 206.546C46.1518 206.556 46.1494 206.567 46.1511 206.579C46.1518 206.603 46.1562 206.627 46.1641 206.65L46.6828 208.546L29.4626 209.529H29.4302V209.536C29.4237 209.529 29.4237 209.529 29.4172 209.536C29.2716 209.553 29.1608 209.674 29.1576 209.82V209.82Z" fill="#161616"/>
<path d="M48.7618 232.422C48.7665 236.853 52.0665 240.592 56.4707 241.157L70.78 242.988C74.3421 243.447 77.8272 241.704 79.591 238.582L66.8574 236.951C62.4542 236.385 59.1553 232.646 59.1483 228.216C59.1465 227.837 59.1703 227.459 59.2197 227.083C59.3648 225.953 59.7281 224.86 60.2895 223.868L58.7205 223.667C53.8823 223.052 49.4584 226.462 48.8331 231.289C48.7839 231.665 48.7601 232.043 48.7618 232.422V232.422Z" fill="#161616"/>
<path d="M102.36 222.648L97.6475 304.223" stroke="#161616" stroke-linecap="round"/>
<path d="M107.802 227.029L107.801 290.343L100.901 300.71" stroke="#161616" stroke-linecap="round"/>
<path d="M118.146 293.451L107.8 290.343" stroke="#161616" stroke-linecap="round"/>
<path d="M376.723 23.293C376.938 25.0942 375.81 26.7845 374.525 28.0667C373.239 29.3489 371.72 30.4459 370.785 32.0011C369.419 34.1925 369.713 37.029 371.5 38.8945C373.349 40.5835 376.81 40.2216 377.927 37.9826C378.311 37.3906 378.239 36.6141 377.754 36.102C377.525 35.9506 377.259 35.8646 376.984 35.8533C374.839 35.769 372.964 37.2838 372.599 39.3949C372.346 41.5026 373.424 43.5472 375.307 44.5343C377.2 45.4592 379.428 45.3992 381.268 44.3739C381.768 44.1037 382.297 43.6424 382.197 43.0839C382.02 42.5707 381.52 42.2399 380.978 42.2772C379.082 42.2181 377.752 44.2227 377.452 46.0914C377.19 47.1441 377.431 48.2585 378.105 49.1098C378.703 49.6089 379.412 49.9568 380.174 50.1241C383.059 51.0608 385.861 52.7684 387.256 55.4579" stroke="#C4A16A"/>
<path d="M452.481 134.173C455.146 140.332 455.281 147.868 450.302 152.374C449.42 153.216 448.302 153.771 447.096 153.964C443.747 154.328 443.137 149.803 445.87 148.029C447.597 146.879 449.801 146.717 451.678 147.601C453.555 148.486 454.83 150.287 455.037 152.348C455.536 157.408 450.242 161.015 448.37 165.744" stroke="#C64D3B"/>
<path d="M127.673 23.3496C127.799 27.9823 126.865 32.5826 124.942 36.8012C124.36 38.0919 123.443 39.2034 122.284 40.0199C121.198 40.6884 119.776 40.369 119.081 39.3007C118.825 38.6532 118.851 37.9281 119.155 37.301C120.546 33.971 126.006 34.0016 127.999 37.012C129.991 40.0223 128.707 44.3921 125.877 46.6376C123.048 48.8831 119.148 49.3367 115.563 48.8664" stroke="#C64D3B"/>
<path d="M39.7106 102.141C37.5154 103.307 36.2317 105.67 36.451 108.142C36.6702 110.614 38.3498 112.716 40.7161 113.479C43.0825 114.242 45.6768 113.519 47.3042 111.642C47.7328 111.238 47.949 110.658 47.889 110.073C47.6063 108.827 45.5371 108.675 44.0106 109.714C41.4427 111.462 40.5865 115.202 41.7073 118.095C43.1193 121.209 46.3259 123.116 49.7426 122.873C50.7134 122.868 51.6381 122.46 52.2947 121.746C52.5977 121.376 52.7332 120.897 52.6688 120.424C52.6044 119.95 52.3459 119.525 51.955 119.249C51.4832 119.047 50.9549 119.018 50.4639 119.168C46.0266 120.181 44.4513 126.646 47.3926 130.113C50.3339 133.58 56.108 133.659 59.7612 130.949" stroke="#C4A16A"/>
<ellipse cx="382.206" cy="98.0129" rx="2.96296" ry="2.95676" fill="#7FAD9C"/>
<ellipse cx="90.7223" cy="90.8776" rx="2.58465" ry="2.57924" fill="#2B5E57"/>
<ellipse cx="59.7087" cy="164.386" rx="2.58465" ry="2.57924" fill="#F9E3C5"/>
<ellipse cx="453.19" cy="108.287" rx="2.58465" ry="2.57924" fill="#F9E3C5"/>
<ellipse cx="216.267" cy="2.57924" rx="2.58465" ry="2.57924" fill="#C4A16A"/>
<ellipse cx="475.416" cy="205.436" rx="2.58465" ry="2.57924" fill="#C64D3B"/>
<ellipse cx="278.413" cy="17.0507" rx="1.61165" ry="1.60828" stroke="#161616"/>
<ellipse cx="78.6566" cy="36.1454" rx="1.61165" ry="1.60828" fill="#C64D3B"/>
<ellipse cx="1.61165" cy="139.494" rx="1.61165" ry="1.60828" fill="#C64D3B"/>
<ellipse cx="420.655" cy="153.873" rx="1.61165" ry="1.60828" fill="#2B5E57"/>
<ellipse cx="155.979" cy="47.0304" rx="2.58465" ry="2.57924" fill="#7FAD9C"/>
</svg>
