<svg width="40" height="40" viewBox="0 0 40 40" fill="none" xmlns="http://www.w3.org/2000/svg">
<path d="M30.0671 13.7135C30.0103 13.5764 29.9142 13.4593 29.7909 13.3769C29.6676 13.2944 29.5226 13.2504 29.3743 13.2504H26.5215C26.1226 12.5718 25.5549 12.008 24.8737 11.6137C24.1924 11.2194 23.4207 11.0081 22.6336 11.0004C22.0473 10.9927 21.4652 11.1024 20.9219 11.3229C20.3785 11.5435 19.8847 11.8705 19.4696 12.2848C19.0423 12.704 18.7032 13.2045 18.4722 13.7567C18.2412 14.3089 18.1229 14.9018 18.1243 15.5004V16.0713C14.3499 15.0757 11.2627 12.0054 11.2299 11.9726C11.1293 11.8711 11.0017 11.8004 10.8623 11.7689C10.7229 11.7375 10.5774 11.7465 10.4429 11.795C10.3085 11.8435 10.1906 11.9293 10.1033 12.0425C10.0161 12.1557 9.96292 12.2915 9.9502 12.4338C9.54614 16.9141 10.8474 19.9123 12.0127 21.6382C12.5809 22.4914 13.2721 23.2559 14.064 23.9069C12.6361 25.5504 10.388 26.4138 10.3636 26.4232C10.2578 26.4628 10.1623 26.5259 10.0843 26.6076C10.0062 26.6893 9.94766 26.7877 9.91295 26.8952C9.87824 27.0028 9.86829 27.1168 9.88383 27.2287C9.89937 27.3406 9.94001 27.4476 10.0027 27.5416C10.073 27.6466 10.3543 28.0151 11.0415 28.3591C11.8908 28.7848 13.013 29.0004 14.3743 29.0004C20.9996 29.0004 26.5355 23.8985 27.1008 17.3341L29.9049 14.531C30.0097 14.4261 30.0811 14.2924 30.11 14.1469C30.1389 14.0013 30.1239 13.8505 30.0671 13.7135ZM25.8483 16.4707C25.7197 16.5996 25.6424 16.7709 25.6308 16.9526C25.2493 22.8673 20.3068 27.5004 14.3743 27.5004C13.3843 27.5004 12.6868 27.3691 12.1974 27.2116C13.2765 26.6257 14.7811 25.6179 15.7486 24.1666C15.8054 24.0813 15.8441 23.9852 15.8623 23.8844C15.8805 23.7835 15.8779 23.6799 15.8545 23.5801C15.8311 23.4803 15.7875 23.3864 15.7265 23.3041C15.6654 23.2218 15.588 23.1529 15.4993 23.1016C15.4552 23.0763 11.3827 20.6323 11.3743 14.1016C12.8743 15.3204 15.6165 17.2113 18.7496 17.7382C18.857 17.7563 18.967 17.7508 19.072 17.7221C19.1771 17.6934 19.2746 17.6421 19.3578 17.5719C19.4411 17.5017 19.508 17.4142 19.554 17.3155C19.6 17.2168 19.624 17.1093 19.6243 17.0004V15.5004C19.6234 15.1003 19.7026 14.7041 19.8572 14.3351C20.0117 13.9661 20.2386 13.6317 20.5243 13.3516C20.7982 13.0772 21.1243 12.8605 21.4834 12.7143C21.8425 12.5681 22.2272 12.4953 22.6149 12.5004C23.8018 12.5154 24.9108 13.2391 25.3749 14.3013C25.4334 14.4349 25.5295 14.5485 25.6516 14.6282C25.7736 14.708 25.9163 14.7504 26.0621 14.7504H27.5621L25.8483 16.4707Z" fill="#CD3C32"/>
</svg>
