<svg width="40" height="40" viewBox="0 0 40 40" fill="none" xmlns="http://www.w3.org/2000/svg">
<path d="M20 10.25C18.0716 10.25 16.1866 10.8218 14.5832 11.8932C12.9798 12.9645 11.7301 14.4873 10.9922 16.2688C10.2542 18.0504 10.0611 20.0108 10.4373 21.9021C10.8136 23.7934 11.7422 25.5307 13.1057 26.8943C14.4693 28.2579 16.2066 29.1865 18.0979 29.5627C19.9892 29.9389 21.9496 29.7458 23.7312 29.0078C25.5127 28.2699 27.0355 27.0202 28.1068 25.4168C29.1782 23.8134 29.75 21.9284 29.75 20C29.7473 17.415 28.7192 14.9366 26.8913 13.1087C25.0634 11.2808 22.585 10.2527 20 10.25ZM20.75 28.2153V22.25H23C23.1989 22.25 23.3897 22.171 23.5303 22.0303C23.671 21.8897 23.75 21.6989 23.75 21.5C23.75 21.3011 23.671 21.1103 23.5303 20.9697C23.3897 20.829 23.1989 20.75 23 20.75H20.75V18.5C20.75 18.1022 20.908 17.7206 21.1893 17.4393C21.4706 17.158 21.8522 17 22.25 17H23.75C23.9489 17 24.1397 16.921 24.2803 16.7803C24.421 16.6397 24.5 16.4489 24.5 16.25C24.5 16.0511 24.421 15.8603 24.2803 15.7197C24.1397 15.579 23.9489 15.5 23.75 15.5H22.25C21.4544 15.5 20.6913 15.8161 20.1287 16.3787C19.5661 16.9413 19.25 17.7044 19.25 18.5V20.75H17C16.8011 20.75 16.6103 20.829 16.4697 20.9697C16.329 21.1103 16.25 21.3011 16.25 21.5C16.25 21.6989 16.329 21.8897 16.4697 22.0303C16.6103 22.171 16.8011 22.25 17 22.25H19.25V28.2153C17.1357 28.0223 15.1773 27.0217 13.782 25.4215C12.3867 23.8214 11.6619 21.7449 11.7585 19.6241C11.8552 17.5032 12.7656 15.5013 14.3006 14.0346C15.8356 12.5679 17.877 11.7495 20 11.7495C22.1231 11.7495 24.1644 12.5679 25.6994 14.0346C27.2344 15.5013 28.1449 17.5032 28.2415 19.6241C28.3381 21.7449 27.6133 23.8214 26.218 25.4215C24.8227 27.0217 22.8643 28.0223 20.75 28.2153Z" fill="#CD3C32"/>
</svg>
