<svg width="40" height="40" viewBox="0 0 40 40" fill="none" xmlns="http://www.w3.org/2000/svg">
<path d="M29 19.9996C29.0001 22.1187 28.2524 24.1699 26.8887 25.7919C25.5249 27.414 23.6325 28.5027 21.5448 28.8665C19.4571 29.2302 17.308 28.8456 15.476 27.7803C13.644 26.7151 12.2467 25.0376 11.5301 23.0433C10.8136 21.049 10.8237 18.8657 11.5588 16.8782C12.2939 14.8906 13.7067 13.2261 15.5485 12.178C17.3903 11.1298 19.5429 10.7652 21.6271 11.1483C23.7114 11.5314 25.5935 12.6377 26.9422 14.2724C27.0091 14.3477 27.0602 14.4358 27.0924 14.5313C27.1245 14.6268 27.1371 14.7278 27.1294 14.8283C27.1216 14.9288 27.0937 15.0267 27.0472 15.1161C27.0008 15.2056 26.9368 15.2848 26.8591 15.3489C26.7814 15.4131 26.6915 15.461 26.5949 15.4896C26.4983 15.5183 26.3968 15.5272 26.2967 15.5158C26.1966 15.5044 26.0998 15.4729 26.012 15.4232C25.9243 15.3736 25.8475 15.3067 25.7863 15.2267C24.6832 13.8892 23.1508 12.9752 21.4497 12.6401C19.7487 12.305 17.9842 12.5696 16.4562 13.3888C14.9283 14.208 13.7313 15.5313 13.069 17.1335C12.4067 18.7357 12.3199 20.5179 12.8235 22.1769C13.327 23.8359 14.3897 25.2692 15.8308 26.233C17.272 27.1968 19.0025 27.6315 20.728 27.4633C22.4535 27.295 24.0675 26.5342 25.2953 25.3102C26.5231 24.0861 27.2889 22.4745 27.4625 20.7496H20C19.8011 20.7496 19.6103 20.6705 19.4697 20.5299C19.329 20.3892 19.25 20.1985 19.25 19.9996C19.25 19.8006 19.329 19.6099 19.4697 19.4692C19.6103 19.3286 19.8011 19.2496 20 19.2496H28.25C28.4489 19.2496 28.6397 19.3286 28.7803 19.4692C28.921 19.6099 29 19.8006 29 19.9996Z" fill="#CD3C32"/>
</svg>
