<svg width="160" height="38" viewBox="0 0 160 38" fill="none" xmlns="http://www.w3.org/2000/svg">
<g clip-path="url(#clip0_299353_3423)">
<path d="M12.8742 7.51068C12.7046 9.33631 19.5248 9.94866 22.5981 10.2251C25.6714 10.5016 32.3522 11.1025 32.5218 9.2769C32.6914 7.45127 29.8388 3.87314 25.0837 1.99267C14.5305 -2.18182 5.91696 2.34454 3.93547 3.02773C3.15961 3.29734 12.9323 6.90061 12.8742 7.51068Z" fill="#CD3C32"/>
<path d="M0.0116129 2.49967C-0.127765 4.00998 1.00352 5.34893 2.54131 5.48602C4.07911 5.62311 5.43804 4.51037 5.57742 3.00006C5.7168 1.48746 4.58552 0.150801 3.05004 0.0114225C1.51224 -0.125671 0.153313 0.98707 0.0116129 2.49967Z" fill="white"/>
<path d="M9.87468 17.9707C9.41241 27.2771 15.4103 28.7371 22.2398 28.7371C29.0693 28.7371 34.6049 25.2252 34.6049 17.9707C34.6049 10.7162 29.0553 7.8418 22.2282 7.8418C15.3964 7.8418 10.323 8.96139 9.87468 17.9707Z" fill="white"/>
<path d="M11.2992 19.1411C10.8973 28.4474 16.0961 29.9075 22.0104 29.9075C27.9269 29.9075 32.7215 26.3956 32.7215 19.1411C32.7215 11.8888 27.9269 8.37695 22.0104 8.37695C16.0938 8.37695 11.6871 10.1317 11.2992 19.1411Z" fill="#F8C1A5"/>
<path d="M14.1445 21.2151C14.1445 21.9188 15.0946 22.4878 16.2654 22.4878C17.4362 22.4878 18.3863 21.9188 18.3863 21.2151C18.3863 20.5113 17.4362 19.9424 16.2654 19.9424C15.0946 19.9424 14.1445 20.5113 14.1445 21.2151Z" fill="#FBE1DB"/>
<path d="M25.0059 21.2151C25.0059 21.9188 25.9559 22.4878 27.1267 22.4878C28.2975 22.4878 29.2476 21.9188 29.2476 21.2151C29.2476 20.5113 28.2975 19.9424 27.1267 19.9424C25.9559 19.9424 25.0059 20.5113 25.0059 21.2151Z" fill="#FBE1DB"/>
<path d="M9.02051 19.6752C9.02051 21.6562 10.0403 21.9669 11.2993 21.9669C12.5584 21.9669 13.5782 21.2198 13.5782 19.6752C13.5782 18.1329 12.5584 17.3857 11.2993 17.3857C10.0403 17.3857 9.02051 17.6942 9.02051 19.6752Z" fill="#F8C1A5"/>
<path d="M30.4424 19.6752C30.4424 21.6562 31.4622 21.9669 32.7212 21.9669C33.9802 21.9669 35 21.2198 35 19.6752C35 18.1329 33.9802 17.3857 32.7212 17.3857C31.4622 17.3857 30.4424 17.6942 30.4424 19.6752Z" fill="#F8C1A5"/>
<path d="M15.9489 21.7319C17.4681 21.3023 19.5355 21.2361 21.6146 21.2178V24.8987C21.136 24.837 20.7922 24.7982 20.4066 24.917C17.6586 25.767 16.7782 24.853 15.2868 24.7525C14.5899 24.7045 13.2705 24.9284 13.2705 24.9284C13.2705 24.9284 13.5771 22.4036 15.9489 21.7319Z" fill="#F0F8FD"/>
<path d="M28.2301 21.7319C26.7109 21.3023 24.6435 21.2361 22.5645 21.2178V24.8987C23.043 24.837 23.3868 24.7982 23.7724 24.917C26.5204 25.767 27.4008 24.853 28.8922 24.7525C29.5891 24.7045 30.9085 24.9284 30.9085 24.9284C30.9085 24.9284 30.5996 22.4036 28.2301 21.7319Z" fill="#F0F8FD"/>
<path d="M22.01 12.88C16.6672 12.88 12.2512 13.4124 12.7344 19.1406H11.2988C11.6868 9.68342 16.0957 7.8418 22.01 7.8418C27.9266 7.8418 32.7211 11.5273 32.7211 19.1406H31.4784C31.8454 13.9859 26.3469 12.88 22.01 12.88Z" fill="white"/>
<path d="M32.7206 19.1406C32.486 23.13 34.579 25.9679 34.6022 29.2947C34.6324 33.6702 31.7542 37.9978 22.0094 37.9978C11.7327 37.9978 8.81735 33.4829 9.01945 28.7349C9.15418 25.5566 11.289 22.8741 11.2983 19.1406C11.2983 19.1406 12.62 17.3081 12.7339 19.1406C12.9917 23.2945 17.3263 21.2153 21.9119 21.2153C26.8319 21.2153 30.8181 22.488 31.4778 19.1406C31.6822 18.1078 32.7206 19.1406 32.7206 19.1406Z" fill="white"/>
<path d="M19.9453 24.1627C19.9453 25.0012 20.8257 25.6798 21.9129 25.6798C23 25.6798 23.8804 25.0012 23.8804 24.1627C23.8804 23.3241 23 22.6455 21.9129 22.6455C20.8257 22.6455 19.9453 23.3264 19.9453 24.1627Z" fill="#CD3C32"/>
<path d="M13.6289 24.3842C13.6289 24.3842 14.6766 23.9249 16.1121 24.3088C17.3665 24.6424 18.9067 25.353 20.3028 24.9508C22.3981 24.3476 22.0868 22.3621 22.0868 22.3621C22.0868 22.3621 20.7674 20.9043 18.5164 20.9112C14.7462 20.9203 13.6289 24.3842 13.6289 24.3842Z" fill="white"/>
<path d="M30.3883 24.3842C30.3883 24.3842 29.3407 23.9249 27.9051 24.3088C26.6507 24.6424 25.1106 25.353 23.7145 24.9508C21.6192 24.3476 21.9281 22.3621 21.9281 22.3621C21.9281 22.3621 23.2476 20.9043 25.4985 20.9112C29.2733 20.9203 30.3883 24.3842 30.3883 24.3842Z" fill="white"/>
<path d="M19.2598 20.7947C19.2598 21.7932 20.4468 22.602 21.9126 22.602C23.3784 22.602 24.5654 21.7932 24.5654 20.7947C24.5654 19.7962 23.3784 18.9873 21.9126 18.9873C20.4468 18.9873 19.2598 19.7984 19.2598 20.7947Z" fill="#F2937B"/>
<path d="M10.2332 15.236C10.5352 15.7707 16.5237 13.9268 22.0106 13.8262C27.8319 13.7188 33.6834 15.8187 34.2851 15.1378C35.4535 13.8125 33.8925 9.67458 32.7217 8.77891C30.0062 6.69966 14.145 7.2069 12.2286 8.37905C11.0625 9.08965 9.43641 13.8262 10.2332 15.236Z" fill="white"/>
<path d="M10.4394 14.8929C11.5661 14.4542 12.6532 13.8784 13.8054 13.506C15.2851 13.0261 16.8113 12.8022 18.3631 12.6994C21.6872 12.4801 25.0671 12.6149 28.3657 13.0764C29.9105 13.2935 31.432 13.6111 32.9675 13.8715C33.5366 13.9675 34.1499 13.9195 34.6958 13.7253C34.6934 14.3057 34.5726 14.8084 34.2823 15.1351C33.6806 15.8183 27.8291 13.7162 22.0078 13.8236C16.5209 13.9264 10.5324 15.768 10.2304 15.2333C10.1932 15.1648 10.1607 15.0871 10.1328 15.0049C10.2373 14.9706 10.3396 14.934 10.4394 14.8929Z" fill="#F0F8FD"/>
<path opacity="0.3" d="M20.2949 19.8352C20.2949 20.2191 21.0197 20.5276 21.9117 20.5276C22.8037 20.5276 23.5285 20.2168 23.5285 19.8352C23.5285 19.4514 22.806 19.1406 21.9117 19.1406C21.0197 19.1406 20.2949 19.4514 20.2949 19.8352Z" fill="white"/>
<path d="M16.9258 17.8657C16.9258 18.4232 17.3857 18.8779 17.9549 18.8779C18.5217 18.8779 18.9839 18.4255 18.9839 17.8657C18.9839 17.3082 18.524 16.8535 17.9549 16.8535C17.3881 16.8535 16.9258 17.3059 16.9258 17.8657Z" fill="#2F120C"/>
<path d="M25.9033 17.8657C25.9033 18.4232 26.3633 18.8779 26.9324 18.8779C27.5015 18.8779 27.9615 18.4255 27.9615 17.8657C27.9615 17.3082 27.5015 16.8535 26.9324 16.8535C26.3656 16.8535 25.9033 17.3059 25.9033 17.8657Z" fill="#2F120C"/>
<path d="M14.7245 16.3189C15.2681 16.6251 17.073 15.5169 19.0382 15.7842C19.986 15.9122 19.5888 14.1642 19.0382 13.9906C17.3634 13.4559 15.5794 13.8329 14.7083 14.9525C13.9905 15.8733 14.1809 16.0127 14.7245 16.3189Z" fill="white"/>
<path d="M29.1344 16.0601C28.5908 16.3663 26.7859 15.2581 24.8207 15.5254C23.8729 15.6534 24.2724 13.9055 24.8207 13.7318C26.4955 13.1971 28.2795 13.5741 29.1507 14.6937C29.8708 15.6146 29.678 15.7539 29.1344 16.0601Z" fill="white"/>
</g>
<path d="M48.944 27V10.536H60.704V12.84H51.632V17.712H59.84V19.992H51.632V27H48.944ZM67.8322 27.288C66.5362 27.288 65.4482 27.056 64.5682 26.592C63.7042 26.112 63.0482 25.384 62.6002 24.408C62.1522 23.432 61.9282 22.192 61.9282 20.688C61.9282 19.168 62.1522 17.928 62.6002 16.968C63.0482 15.992 63.7122 15.272 64.5922 14.808C65.4722 14.328 66.5682 14.088 67.8802 14.088C69.0802 14.088 70.0802 14.32 70.8802 14.784C71.6962 15.232 72.3122 15.92 72.7282 16.848C73.1442 17.776 73.3522 18.944 73.3522 20.352V21.312H64.4962C64.5282 22.208 64.6642 22.96 64.9042 23.568C65.1442 24.16 65.5042 24.6 65.9842 24.888C66.4802 25.16 67.1042 25.296 67.8562 25.296C68.3202 25.296 68.7362 25.24 69.1042 25.128C69.4722 25 69.7842 24.824 70.0402 24.6C70.2962 24.36 70.4962 24.08 70.6402 23.76C70.7842 23.424 70.8562 23.048 70.8562 22.632H73.3042C73.3042 23.384 73.1762 24.048 72.9202 24.624C72.6642 25.2 72.2882 25.688 71.7922 26.088C71.3122 26.472 70.7362 26.768 70.0642 26.976C69.3922 27.184 68.6482 27.288 67.8322 27.288ZM64.5442 19.488H70.7362C70.7362 18.864 70.6642 18.344 70.5202 17.928C70.3922 17.496 70.2002 17.144 69.9442 16.872C69.6882 16.6 69.3842 16.408 69.0322 16.296C68.6802 16.168 68.2802 16.104 67.8322 16.104C67.1602 16.104 66.5842 16.224 66.1042 16.464C65.6402 16.704 65.2802 17.08 65.0242 17.592C64.7682 18.088 64.6082 18.72 64.5442 19.488ZM75.8893 27V9.648H78.3853V27H75.8893ZM81.608 12.192V9.648H84.104V12.192H81.608ZM81.608 27V14.376H84.104V27H81.608ZM86.3908 27V25.752L93.1108 16.44H86.8468V14.376H96.7108V15.6L89.9668 24.936H97.0468V27H86.3908ZM104.655 27V10.536H107.247L114.759 20.856C114.855 20.952 114.959 21.088 115.071 21.264C115.199 21.44 115.319 21.616 115.431 21.792C115.543 21.968 115.623 22.112 115.671 22.224H115.791C115.791 21.984 115.791 21.752 115.791 21.528C115.791 21.304 115.791 21.08 115.791 20.856V10.536H118.383V27H115.887L108.279 16.56C108.151 16.368 107.991 16.128 107.799 15.84C107.607 15.536 107.463 15.304 107.367 15.144H107.247C107.247 15.368 107.247 15.6 107.247 15.84C107.247 16.064 107.247 16.304 107.247 16.56V27H104.655ZM125.136 27.288C124.736 27.288 124.304 27.24 123.84 27.144C123.376 27.048 122.936 26.872 122.52 26.616C122.12 26.36 121.792 26.008 121.536 25.56C121.28 25.096 121.152 24.496 121.152 23.76C121.152 22.896 121.352 22.184 121.752 21.624C122.152 21.064 122.712 20.624 123.432 20.304C124.152 19.984 125.008 19.76 126 19.632C127.008 19.504 128.104 19.44 129.288 19.44V18.192C129.288 17.776 129.216 17.408 129.072 17.088C128.944 16.768 128.696 16.52 128.328 16.344C127.976 16.168 127.464 16.08 126.792 16.08C126.12 16.08 125.592 16.168 125.208 16.344C124.84 16.504 124.576 16.712 124.416 16.968C124.272 17.208 124.2 17.472 124.2 17.76V18.12H121.8C121.784 18.04 121.776 17.96 121.776 17.88C121.776 17.8 121.776 17.704 121.776 17.592C121.776 16.84 121.984 16.208 122.4 15.696C122.832 15.168 123.432 14.768 124.2 14.496C124.968 14.224 125.856 14.088 126.864 14.088C127.952 14.088 128.856 14.248 129.576 14.568C130.312 14.872 130.864 15.312 131.232 15.888C131.6 16.464 131.784 17.16 131.784 17.976V24.384C131.784 24.688 131.856 24.904 132 25.032C132.16 25.16 132.344 25.224 132.552 25.224H133.416V26.904C133.224 26.984 132.984 27.064 132.696 27.144C132.408 27.224 132.072 27.264 131.688 27.264C131.256 27.264 130.888 27.184 130.584 27.024C130.296 26.88 130.056 26.672 129.864 26.4C129.688 26.112 129.568 25.792 129.504 25.44H129.36C129.072 25.808 128.72 26.136 128.304 26.424C127.904 26.696 127.44 26.904 126.912 27.048C126.384 27.208 125.792 27.288 125.136 27.288ZM125.832 25.224C126.328 25.224 126.784 25.152 127.2 25.008C127.632 24.848 128 24.632 128.304 24.36C128.608 24.072 128.848 23.736 129.024 23.352C129.2 22.952 129.288 22.52 129.288 22.056V21.216C128.184 21.216 127.216 21.28 126.384 21.408C125.552 21.536 124.904 21.776 124.44 22.128C123.976 22.464 123.744 22.936 123.744 23.544C123.744 23.912 123.824 24.224 123.984 24.48C124.144 24.72 124.384 24.904 124.704 25.032C125.024 25.16 125.4 25.224 125.832 25.224ZM138.283 27.288C137.563 27.288 136.995 27.152 136.579 26.88C136.179 26.592 135.891 26.232 135.715 25.8C135.555 25.352 135.475 24.88 135.475 24.384V16.44H133.891V14.376H135.523L135.979 10.848H137.971V14.376H140.251V16.44H137.971V24.096C137.971 24.464 138.051 24.744 138.211 24.936C138.371 25.128 138.635 25.224 139.003 25.224H140.251V26.904C140.091 26.968 139.891 27.024 139.651 27.072C139.427 27.136 139.195 27.184 138.955 27.216C138.715 27.264 138.491 27.288 138.283 27.288ZM145.644 27.288C145.244 27.288 144.812 27.24 144.348 27.144C143.884 27.048 143.444 26.872 143.028 26.616C142.628 26.36 142.3 26.008 142.044 25.56C141.788 25.096 141.66 24.496 141.66 23.76C141.66 22.896 141.86 22.184 142.26 21.624C142.66 21.064 143.22 20.624 143.94 20.304C144.66 19.984 145.516 19.76 146.508 19.632C147.516 19.504 148.612 19.44 149.796 19.44V18.192C149.796 17.776 149.724 17.408 149.58 17.088C149.452 16.768 149.204 16.52 148.836 16.344C148.484 16.168 147.972 16.08 147.3 16.08C146.628 16.08 146.1 16.168 145.716 16.344C145.348 16.504 145.084 16.712 144.924 16.968C144.78 17.208 144.708 17.472 144.708 17.76V18.12H142.308C142.292 18.04 142.284 17.96 142.284 17.88C142.284 17.8 142.284 17.704 142.284 17.592C142.284 16.84 142.492 16.208 142.908 15.696C143.34 15.168 143.94 14.768 144.708 14.496C145.476 14.224 146.364 14.088 147.372 14.088C148.46 14.088 149.364 14.248 150.084 14.568C150.82 14.872 151.372 15.312 151.74 15.888C152.108 16.464 152.292 17.16 152.292 17.976V24.384C152.292 24.688 152.364 24.904 152.508 25.032C152.668 25.16 152.852 25.224 153.06 25.224H153.924V26.904C153.732 26.984 153.492 27.064 153.204 27.144C152.916 27.224 152.58 27.264 152.196 27.264C151.764 27.264 151.396 27.184 151.092 27.024C150.804 26.88 150.564 26.672 150.372 26.4C150.196 26.112 150.076 25.792 150.012 25.44H149.868C149.58 25.808 149.228 26.136 148.812 26.424C148.412 26.696 147.948 26.904 147.42 27.048C146.892 27.208 146.3 27.288 145.644 27.288ZM146.34 25.224C146.836 25.224 147.292 25.152 147.708 25.008C148.14 24.848 148.508 24.632 148.812 24.36C149.116 24.072 149.356 23.736 149.532 23.352C149.708 22.952 149.796 22.52 149.796 22.056V21.216C148.692 21.216 147.724 21.28 146.892 21.408C146.06 21.536 145.412 21.776 144.948 22.128C144.484 22.464 144.252 22.936 144.252 23.544C144.252 23.912 144.332 24.224 144.492 24.48C144.652 24.72 144.892 24.904 145.212 25.032C145.532 25.16 145.908 25.224 146.34 25.224ZM155.647 27V9.648H158.143V27H155.647Z" fill="#161212"/>
<defs>
<clipPath id="clip0_299353_3423">
<rect width="35" height="38" fill="white"/>
</clipPath>
</defs>
</svg>
