<svg width="40" height="40" viewBox="0 0 40 40" fill="none" xmlns="http://www.w3.org/2000/svg">
<path d="M20 15.5C19.11 15.5 18.24 15.7639 17.4999 16.2584C16.7599 16.7529 16.1831 17.4557 15.8425 18.2779C15.5019 19.1002 15.4128 20.005 15.5865 20.8779C15.7601 21.7508 16.1887 22.5526 16.818 23.182C17.4474 23.8113 18.2492 24.2399 19.1221 24.4135C19.995 24.5872 20.8998 24.4981 21.7221 24.1575C22.5443 23.8169 23.2471 23.2401 23.7416 22.5001C24.2361 21.76 24.5 20.89 24.5 20C24.4988 18.8069 24.0243 17.663 23.1806 16.8194C22.337 15.9757 21.1931 15.5012 20 15.5ZM20 23C19.4067 23 18.8266 22.8241 18.3333 22.4944C17.8399 22.1648 17.4554 21.6962 17.2284 21.148C17.0013 20.5999 16.9419 19.9967 17.0576 19.4147C17.1734 18.8328 17.4591 18.2982 17.8787 17.8787C18.2982 17.4591 18.8328 17.1734 19.4147 17.0576C19.9967 16.9419 20.5999 17.0013 21.148 17.2284C21.6962 17.4554 22.1648 17.8399 22.4944 18.3333C22.8241 18.8266 23 19.4067 23 20C23 20.7956 22.6839 21.5587 22.1213 22.1213C21.5587 22.6839 20.7956 23 20 23ZM24.5 10.25H15.5C14.1081 10.2515 12.7736 10.8051 11.7893 11.7893C10.8051 12.7736 10.2515 14.1081 10.25 15.5V24.5C10.2515 25.8919 10.8051 27.2264 11.7893 28.2107C12.7736 29.1949 14.1081 29.7485 15.5 29.75H24.5C25.8919 29.7485 27.2264 29.1949 28.2107 28.2107C29.1949 27.2264 29.7485 25.8919 29.75 24.5V15.5C29.7485 14.1081 29.1949 12.7736 28.2107 11.7893C27.2264 10.8051 25.8919 10.2515 24.5 10.25ZM28.25 24.5C28.25 25.4946 27.8549 26.4484 27.1517 27.1517C26.4484 27.8549 25.4946 28.25 24.5 28.25H15.5C14.5054 28.25 13.5516 27.8549 12.8483 27.1517C12.1451 26.4484 11.75 25.4946 11.75 24.5V15.5C11.75 14.5054 12.1451 13.5516 12.8483 12.8483C13.5516 12.1451 14.5054 11.75 15.5 11.75H24.5C25.4946 11.75 26.4484 12.1451 27.1517 12.8483C27.8549 13.5516 28.25 14.5054 28.25 15.5V24.5ZM26 15.125C26 15.3475 25.934 15.565 25.8104 15.75C25.6868 15.935 25.5111 16.0792 25.3055 16.1644C25.1 16.2495 24.8738 16.2718 24.6555 16.2284C24.4373 16.185 24.2368 16.0778 24.0795 15.9205C23.9222 15.7632 23.815 15.5627 23.7716 15.3445C23.7282 15.1262 23.7505 14.9 23.8356 14.6945C23.9208 14.4889 24.065 14.3132 24.25 14.1896C24.435 14.066 24.6525 14 24.875 14C25.1734 14 25.4595 14.1185 25.6705 14.3295C25.8815 14.5405 26 14.8266 26 15.125Z" fill="#CD3C32"/>
</svg>
