<svg width="40" height="40" viewBox="0 0 40 40" fill="none" xmlns="http://www.w3.org/2000/svg">
<path d="M25.5887 21.5787L22.5887 20.0787C22.4706 20.0199 22.3391 19.9933 22.2074 20.0015C22.0758 20.0097 21.9486 20.0525 21.8387 20.1256L20.4615 21.0444C19.8293 20.6968 19.3091 20.1766 18.9615 19.5444L19.8803 18.1672C19.9534 18.0573 19.9962 17.9302 20.0044 17.7985C20.0127 17.6668 19.986 17.5353 19.9272 17.4172L18.4272 14.4172C18.365 14.2916 18.2689 14.186 18.1498 14.1123C18.0306 14.0385 17.8932 13.9996 17.7531 14C16.7585 14 15.8047 14.3951 15.1015 15.0983C14.3982 15.8016 14.0031 16.7554 14.0031 17.75C14.0056 19.9373 14.8756 22.0343 16.4222 23.5809C17.9689 25.1275 20.0658 25.9975 22.2531 26C22.7456 26 23.2332 25.903 23.6882 25.7145C24.1431 25.5261 24.5565 25.2499 24.9048 24.9017C25.253 24.5534 25.5292 24.14 25.7177 23.6851C25.9061 23.2301 26.0031 22.7425 26.0031 22.25C26.0032 22.1107 25.9645 21.9741 25.8913 21.8555C25.8181 21.7369 25.7133 21.6411 25.5887 21.5787ZM22.2531 24.5C20.4635 24.498 18.7478 23.7862 17.4823 22.5208C16.2169 21.2553 15.5051 19.5396 15.5031 17.75C15.503 17.2298 15.6831 16.7256 16.0128 16.3233C16.3425 15.9209 16.8015 15.6452 17.3115 15.5431L18.3878 17.6994L17.4719 19.0625C17.4034 19.1652 17.3614 19.2831 17.3494 19.406C17.3375 19.5288 17.356 19.6526 17.4034 19.7666C17.94 21.0419 18.9546 22.0565 20.23 22.5931C20.3443 22.6426 20.4691 22.6629 20.5931 22.6521C20.7172 22.6413 20.8366 22.5998 20.9406 22.5312L22.3103 21.6181L24.4665 22.6944C24.3637 23.205 24.0868 23.6642 23.6831 23.9935C23.2794 24.3228 22.774 24.5018 22.2531 24.5ZM20.0031 10.25C18.3198 10.2496 16.6651 10.6851 15.2 11.514C13.7349 12.3428 12.5093 13.5369 11.6426 14.98C10.7759 16.423 10.2976 18.0659 10.2542 19.7486C10.2108 21.4314 10.6038 23.0967 11.395 24.5825L10.3309 27.7747C10.2428 28.039 10.23 28.3226 10.294 28.5938C10.358 28.8649 10.4962 29.1129 10.6932 29.3099C10.8902 29.5069 11.1382 29.6451 11.4093 29.7091C11.6805 29.7731 11.9641 29.7603 12.2284 29.6722L15.4206 28.6081C16.7282 29.3036 18.1771 29.6921 19.6572 29.744C21.1373 29.7959 22.6099 29.51 23.963 28.9079C25.3161 28.3057 26.5143 27.4033 27.4665 26.269C28.4188 25.1346 29.1002 23.7983 29.4588 22.3613C29.8175 20.9244 29.8441 19.4246 29.5367 17.9758C29.2292 16.527 28.5957 15.1673 27.6843 13.9999C26.7728 12.8325 25.6074 11.8881 24.2765 11.2384C22.9456 10.5886 21.4842 10.2506 20.0031 10.25ZM20.0031 28.25C18.5528 28.251 17.1279 27.8691 15.8725 27.1428C15.7806 27.0895 15.6784 27.0563 15.5727 27.0455C15.467 27.0347 15.3602 27.0464 15.2594 27.08L11.7531 28.25L12.9222 24.7438C12.9559 24.643 12.9678 24.5362 12.9571 24.4305C12.9464 24.3248 12.9134 24.2226 12.8603 24.1306C11.9509 22.5584 11.5858 20.7299 11.8216 18.929C12.0574 17.128 12.8809 15.4552 14.1644 14.1701C15.448 12.8849 17.1197 12.0593 18.9204 11.8212C20.721 11.5831 22.5499 11.9459 24.1234 12.8533C25.6968 13.7607 26.9268 15.162 27.6225 16.8398C28.3182 18.5176 28.4409 20.3781 27.9713 22.1327C27.5018 23.8873 26.4663 25.4379 25.0256 26.5439C23.5849 27.65 21.8194 28.2497 20.0031 28.25Z" fill="#CD3C32"/>
</svg>
