<svg width="16" height="14" viewBox="0 0 16 14" fill="none" xmlns="http://www.w3.org/2000/svg">
<path d="M15.875 4.60938C15.875 9.53125 8.57726 13.5152 8.26648 13.6797C8.18457 13.7238 8.09301 13.7468 8 13.7468C7.90699 13.7468 7.81543 13.7238 7.73352 13.6797C7.42273 13.5152 0.125 9.53125 0.125 4.60938C0.126303 3.4536 0.586011 2.34553 1.40327 1.52827C2.22053 0.711011 3.3286 0.251303 4.48438 0.25C5.93633 0.25 7.20758 0.874375 8 1.92977C8.79242 0.874375 10.0637 0.25 11.5156 0.25C12.6714 0.251303 13.7795 0.711011 14.5967 1.52827C15.414 2.34553 15.8737 3.4536 15.875 4.60938Z" fill="#FF3536"/>
</svg>
