<svg width="596" height="394" viewBox="0 0 596 394" fill="none" xmlns="http://www.w3.org/2000/svg">
<g clip-path="url(#clip0_299353_2220)">
<path d="M15.7726 114.002C37.2493 107.099 58.9562 103.647 80.8932 103.647C102.83 103.647 119.705 107.329 131.517 114.693C134.278 122.976 135.659 130.877 135.659 138.394C135.659 156.035 128.372 170.839 113.799 182.805C99.2252 194.617 80.433 203.131 57.4222 208.347L51.8996 259.891L28.8887 262.192L15.7726 114.002ZM91.2481 145.067C91.2481 133.255 86.4158 124.434 76.7513 118.604C73.99 118.604 70.615 119.141 66.6265 120.215L59.0329 192.699C69.0043 187.177 76.828 180.043 82.504 171.299C88.3334 162.555 91.2481 153.811 91.2481 145.067Z" fill="white"/>
<path d="M165.782 262.422L154.046 148.518L203.289 140.925L188.562 260.351L165.782 262.422ZM161.179 122.976C157.037 118.681 154.966 113.619 154.966 107.789C154.966 101.96 157.037 96.9742 161.179 92.8323C165.475 88.5369 170.537 86.3893 176.367 86.3893C182.196 86.3893 187.182 88.5369 191.324 92.8323C195.619 96.9742 197.767 101.96 197.767 107.789C197.767 113.619 195.619 118.681 191.324 122.976C187.182 127.118 182.196 129.189 176.367 129.189C170.537 129.189 165.475 127.118 161.179 122.976Z" fill="#FFBD48"/>
<path d="M236.774 141.845L330.197 143.916L333.189 167.848L256.103 244.013L327.436 235.499L328.817 258.97L229.64 261.041L230.331 247.005L282.105 162.785L237.464 158.183L236.774 141.845Z" fill="#FF3536"/>
<path d="M365.535 141.845L458.959 143.916L461.951 167.848L384.864 244.013L456.198 235.499L457.579 258.97L358.402 261.041L359.092 247.005L410.867 162.785L366.226 158.183L365.535 141.845Z" fill="#60BB28"/>
<path d="M507.873 264.263C505.265 264.263 503.348 264.186 502.121 264.033C496.905 260.504 492.686 255.289 489.465 248.385C486.397 241.329 484.863 234.042 484.863 226.525C484.863 216.707 488.544 209.574 495.908 205.125C503.425 200.676 517.154 198.452 537.097 198.452C544.461 198.452 552.131 198.989 560.108 200.063L559.648 195C559.034 188.864 556.119 184.032 550.904 180.504C545.688 176.822 539.015 174.981 530.884 174.981C522.754 174.981 514.623 177.512 506.493 182.574L496.368 149.209C509.561 143.84 524.595 141.155 541.469 141.155C558.344 141.155 571.69 144.99 581.508 152.66C591.326 160.177 596.235 171.99 596.235 188.097C596.235 191.779 596.082 194.694 595.775 196.841L589.332 260.351L566.551 262.422L563.099 229.056H561.258C556.043 240.102 548.833 248.769 539.628 255.059C530.424 261.195 519.839 264.263 507.873 264.263ZM561.028 209.727L548.833 209.497C538.708 209.497 530.424 210.034 523.981 211.108C521.833 215.403 520.759 219.238 520.759 222.613C520.759 225.988 521.22 229.21 522.14 232.278C523.061 235.346 524.058 237.417 525.131 238.491C543.54 235.576 555.506 225.988 561.028 209.727Z" fill="white"/>
<path d="M224.049 338.202C224.049 340.658 223.424 343.002 222.174 345.235C220.968 347.468 219.316 349.433 217.217 351.13C215.163 352.782 212.729 354.099 209.916 355.082C207.147 356.064 204.2 356.555 201.074 356.555C199.957 356.555 199.064 356.421 198.394 356.153C197.769 355.841 197.055 355.26 196.251 354.412C194.018 359.279 192.187 363.767 190.758 367.875C189.374 371.939 188.28 375.891 187.476 379.732C185.779 379.33 184.395 378.615 183.323 377.588C182.251 376.606 181.269 375.355 180.376 373.837C180.822 372.989 181.358 371.872 181.983 370.488C182.609 369.103 183.368 367.407 184.261 365.397C185.154 363.343 186.181 360.909 187.342 358.096C188.548 355.238 189.955 351.911 191.562 348.115C192.277 346.374 192.902 344.855 193.438 343.56C193.974 342.265 194.442 341.06 194.844 339.943C195.246 338.782 195.603 337.644 195.916 336.527C196.273 335.411 196.631 334.183 196.988 332.843C194.889 333.513 192.946 334.294 191.16 335.187C189.419 336.081 187.967 337.018 186.806 338.001C186.404 337.733 185.98 337.331 185.534 336.795C185.132 336.259 184.752 335.679 184.395 335.053C184.038 334.384 183.725 333.714 183.457 333.044C183.189 332.374 183.033 331.771 182.988 331.235C184.283 330.342 185.891 329.516 187.811 328.757C189.731 327.998 191.785 327.35 193.974 326.815C196.162 326.234 198.417 325.787 200.739 325.475C203.106 325.162 205.361 325.006 207.504 325.006C210.05 325.006 212.349 325.341 214.404 326.011C216.458 326.636 218.199 327.529 219.628 328.69C221.057 329.851 222.151 331.235 222.91 332.843C223.67 334.451 224.049 336.237 224.049 338.202ZM212.126 330.164C210.429 330.164 208.688 330.298 206.901 330.566L207.705 331.771C207.259 332.352 206.7 333.223 206.031 334.384C205.361 335.545 204.624 336.951 203.82 338.604C203.016 340.211 202.123 342.02 201.141 344.029C200.203 346.039 199.198 348.16 198.127 350.393C201.61 350.393 204.78 350.08 207.638 349.455C210.496 348.785 212.93 347.892 214.939 346.776C216.994 345.615 218.579 344.275 219.695 342.757C220.856 341.238 221.437 339.608 221.437 337.867C221.437 335.545 220.655 333.691 219.092 332.307C217.529 330.878 215.207 330.164 212.126 330.164Z" fill="white"/>
<path d="M244.01 346.575C243.832 349.343 243.34 351.732 242.537 353.742C241.733 355.707 240.572 357.448 239.053 358.967C237.58 360.44 235.771 361.78 233.628 362.986C231.484 364.191 228.984 365.352 226.126 366.469C226.126 366.737 226.103 367.027 226.059 367.34C226.059 367.608 226.059 367.898 226.059 368.21C226.059 368.791 226.103 369.394 226.193 370.019C226.282 370.644 226.438 371.225 226.661 371.76C226.885 372.296 227.197 372.743 227.599 373.1C228.001 373.413 228.515 373.569 229.14 373.569C230.346 373.569 231.529 373.301 232.69 372.765C233.851 372.229 234.945 371.582 235.972 370.823C237.044 370.019 238.026 369.17 238.919 368.277C239.857 367.34 240.683 366.491 241.398 365.732C241.844 366.134 242.224 366.513 242.537 366.871C240.527 369.55 238.317 371.783 235.905 373.569C233.538 375.311 231.283 376.427 229.14 376.918C226.059 376.561 223.647 375.445 221.906 373.569C220.209 371.649 219.36 369.349 219.36 366.67C219.36 364.839 219.606 362.986 220.097 361.11C220.633 359.19 221.347 357.359 222.241 355.617C223.178 353.831 224.25 352.157 225.456 350.594C226.706 349.031 228.024 347.669 229.408 346.508C230.837 345.347 232.288 344.431 233.762 343.761C235.28 343.092 236.776 342.757 238.25 342.757C240.304 343.025 242.224 344.297 244.01 346.575ZM239.388 348.785C238.183 348.964 236.932 349.455 235.637 350.259C234.342 351.063 233.114 352.134 231.953 353.474C230.837 354.814 229.81 356.377 228.872 358.163C227.934 359.949 227.197 361.869 226.661 363.923C230.234 362.137 233.204 359.949 235.57 357.359C237.937 354.724 239.21 351.866 239.388 348.785Z" fill="white"/>
<path d="M261.714 343.025C262.607 343.025 263.634 343.292 264.795 343.828C265.956 344.364 266.983 345.056 267.876 345.905C267.653 344.119 267.363 342.444 267.005 340.881C266.693 339.273 266.202 337.621 265.532 335.924C264.907 334.227 264.058 332.374 262.986 330.365C261.915 328.355 260.575 326.055 258.967 323.465C259.101 323.063 259.392 322.595 259.838 322.059C260.329 321.523 260.865 321.032 261.446 320.585C262.071 320.094 262.696 319.67 263.321 319.312C263.991 318.955 264.616 318.732 265.197 318.643C266.447 320.027 267.631 321.768 268.747 323.867C269.863 325.921 270.846 328.154 271.694 330.566C272.543 332.932 273.19 335.388 273.637 337.934C274.128 340.479 274.374 342.913 274.374 345.235C274.374 347.557 274.106 349.946 273.57 352.402C273.079 354.858 272.364 357.27 271.426 359.636C270.533 361.959 269.484 364.169 268.278 366.268C267.072 368.367 265.755 370.242 264.326 371.894C262.942 373.547 261.491 374.886 259.972 375.913C258.454 376.985 256.936 377.655 255.417 377.923C252.336 377.566 249.969 376.561 248.317 374.909C246.709 373.301 245.906 371.068 245.906 368.21C245.906 366.692 246.129 365.04 246.576 363.254C247.067 361.467 247.692 359.703 248.451 357.962C249.255 356.176 250.17 354.456 251.197 352.804C252.269 351.107 253.386 349.589 254.547 348.249C255.752 346.91 256.958 345.771 258.164 344.833C259.369 343.895 260.553 343.292 261.714 343.025ZM254.881 375.244C256.444 374.708 258.007 373.524 259.57 371.694C261.133 369.863 262.54 367.719 263.79 365.263C265.041 362.762 266.045 360.105 266.805 357.292C267.608 354.434 268.01 351.688 268.01 349.053C268.01 348.294 268.01 347.825 268.01 347.646C268.01 347.468 267.988 347.289 267.943 347.111C266.872 347.557 265.733 348.316 264.527 349.388C263.321 350.46 262.116 351.71 260.91 353.139C259.704 354.523 258.566 356.042 257.494 357.694C256.422 359.346 255.462 360.998 254.614 362.651C253.765 364.303 253.095 365.888 252.604 367.407C252.113 368.925 251.867 370.265 251.867 371.426C251.867 373.658 252.872 374.931 254.881 375.244Z" fill="white"/>
<path d="M299.199 347.245C299.646 347.245 300.159 347.334 300.74 347.512C301.365 347.646 301.923 347.847 302.414 348.115C302.905 348.339 303.307 348.584 303.62 348.852C303.977 349.12 304.156 349.366 304.156 349.589C303.263 351.464 302.436 353.362 301.677 355.283C300.918 357.158 300.271 358.967 299.735 360.708C299.199 362.45 298.775 364.08 298.462 365.598C298.194 367.116 298.06 368.434 298.06 369.55C298.06 370.8 298.194 371.85 298.462 372.698C298.73 373.502 299.177 374.083 299.802 374.44C299.266 374.797 298.574 375.087 297.725 375.311C296.877 375.534 296.118 375.646 295.448 375.646C293.036 375.646 291.831 373.993 291.831 370.689C291.831 368.143 292.679 364.66 294.376 360.239C293.483 362.293 292.456 364.236 291.295 366.067C290.134 367.853 288.95 369.438 287.745 370.823C286.539 372.207 285.311 373.346 284.061 374.239C282.855 375.087 281.739 375.601 280.711 375.779C279.059 375.69 277.72 374.909 276.692 373.435C275.665 371.917 275.152 369.997 275.152 367.674C275.152 365.174 275.688 362.539 276.759 359.77C277.831 357.002 279.193 354.434 280.845 352.067C282.542 349.701 284.373 347.736 286.338 346.173C288.303 344.565 290.201 343.717 292.032 343.627C292.478 343.761 292.969 344.029 293.505 344.431C294.086 344.833 294.622 345.302 295.113 345.838C295.649 346.374 296.095 346.932 296.453 347.512C296.81 348.048 297.011 348.517 297.055 348.919C295.269 349.187 293.416 350.058 291.496 351.531C289.62 353.005 287.901 354.791 286.338 356.89C284.82 358.944 283.569 361.155 282.587 363.522C281.605 365.888 281.113 368.099 281.113 370.153C281.113 371.001 281.426 371.537 282.051 371.76C283.346 371.493 284.842 370.398 286.539 368.478C288.236 366.513 290.29 363.499 292.702 359.436C293.148 358.632 293.639 357.739 294.175 356.756C294.756 355.774 295.336 354.747 295.917 353.675C296.497 352.603 297.055 351.531 297.591 350.46C298.172 349.343 298.708 348.272 299.199 347.245Z" fill="white"/>
<path d="M307.365 362.517C307.365 359.971 307.879 357.515 308.906 355.149C309.978 352.737 311.362 350.616 313.059 348.785C314.8 346.91 316.765 345.414 318.953 344.297C321.186 343.136 323.486 342.556 325.853 342.556C328.175 342.556 329.961 343.136 331.211 344.297C332.462 345.458 333.087 347.111 333.087 349.254C333.087 350.281 332.931 351.286 332.618 352.268C332.35 353.206 331.97 354.054 331.479 354.814C331.033 355.573 330.497 356.198 329.872 356.689C329.246 357.136 328.621 357.359 327.996 357.359C327.46 357.359 326.902 357.203 326.322 356.89C325.786 356.533 325.339 356.086 324.982 355.55C327.974 352.826 329.47 350.348 329.47 348.115C329.47 346.82 328.956 346.173 327.929 346.173C327.036 346.173 325.92 346.597 324.58 347.445C323.24 348.294 321.945 349.41 320.695 350.795C318.775 352.938 317.301 355.327 316.274 357.962C315.292 360.552 314.8 363.276 314.8 366.134C314.8 369.751 315.604 371.917 317.212 372.631C317.882 372.542 318.663 372.341 319.556 372.028C320.449 371.716 321.409 371.314 322.436 370.823C323.464 370.287 324.513 369.684 325.585 369.014C326.701 368.344 327.773 367.63 328.8 366.871C328.979 367.005 329.135 367.206 329.269 367.474C329.403 367.741 329.47 367.987 329.47 368.21C328.755 369.103 327.929 369.974 326.991 370.823C326.054 371.671 325.071 372.453 324.044 373.167C323.017 373.882 322.012 374.507 321.03 375.043C320.047 375.579 319.177 375.936 318.417 376.114C317.703 377.141 317.055 378.146 316.475 379.129C315.894 380.111 315.448 380.982 315.135 381.741C315.537 381.518 316.028 381.294 316.609 381.071C317.234 380.893 317.859 380.714 318.484 380.535C319.11 380.357 319.712 380.223 320.293 380.133C320.918 380.044 321.432 379.999 321.834 379.999C322.012 379.999 322.325 380.133 322.771 380.401C323.218 380.714 323.642 381.049 324.044 381.406C324.491 381.763 324.87 382.121 325.183 382.478C325.54 382.835 325.719 383.103 325.719 383.282C325.719 383.594 325.451 384.085 324.915 384.755C324.379 385.425 323.687 386.162 322.838 386.966C322.035 387.77 321.119 388.618 320.092 389.511C319.065 390.404 318.083 391.208 317.145 391.923C316.207 392.637 315.336 393.218 314.532 393.664C313.773 394.155 313.215 394.401 312.858 394.401C312.769 394.401 312.635 394.289 312.456 394.066C312.322 393.887 312.166 393.664 311.987 393.396C311.853 393.128 311.719 392.86 311.585 392.592C311.496 392.324 311.451 392.123 311.451 391.99C312.478 391.141 313.371 390.36 314.131 389.645C314.89 388.931 315.582 388.238 316.207 387.569C316.832 386.899 317.413 386.184 317.949 385.425C318.484 384.666 319.043 383.818 319.623 382.88C319.266 382.969 318.752 383.081 318.083 383.215C317.413 383.393 316.698 383.594 315.939 383.818C315.225 384.085 314.488 384.331 313.729 384.554C313.014 384.822 312.389 385.046 311.853 385.224C311.719 385.135 311.607 385.001 311.518 384.822C311.429 384.688 311.362 384.554 311.317 384.42C311.54 383.661 312.143 382.478 313.126 380.87C314.108 379.263 315.247 377.633 316.542 375.98C315.247 375.668 314.041 375.087 312.925 374.239C311.808 373.39 310.826 372.363 309.978 371.158C309.174 369.952 308.526 368.612 308.035 367.139C307.588 365.665 307.365 364.124 307.365 362.517Z" fill="white"/>
<path d="M342.931 376.65C340.386 376.382 338.354 375.266 336.836 373.301C335.318 371.336 334.558 368.836 334.558 365.799C334.558 364.013 334.826 362.16 335.362 360.239C335.898 358.319 336.657 356.466 337.64 354.68C338.622 352.849 339.783 351.13 341.123 349.522C342.462 347.914 343.914 346.53 345.477 345.369C347.933 343.538 350.233 342.623 352.376 342.623C353.805 343.382 355.212 344.967 356.596 347.378C356.819 347.378 357.02 347.378 357.199 347.378C357.377 347.334 357.578 347.311 357.802 347.311C360.168 347.311 361.352 349.41 361.352 353.608C361.352 356.421 360.883 359.101 359.945 361.646C359.052 364.147 357.779 366.424 356.127 368.478C354.519 370.532 352.577 372.274 350.3 373.703C348.067 375.087 345.611 376.07 342.931 376.65ZM346.348 355.55C345.588 356.578 344.874 357.694 344.204 358.9C343.534 360.105 342.954 361.333 342.462 362.584C341.971 363.789 341.592 364.973 341.324 366.134C341.056 367.25 340.922 368.255 340.922 369.148C340.922 370.22 341.1 371.247 341.458 372.229C341.815 373.212 342.217 373.77 342.663 373.904C344.673 373.457 346.504 372.631 348.156 371.426C349.853 370.175 351.304 368.635 352.51 366.804C353.76 364.973 354.72 362.896 355.39 360.574C356.105 358.252 356.462 355.774 356.462 353.139C356.462 351.978 356.395 351.063 356.261 350.393C356.127 349.723 355.904 349.142 355.591 348.651C353.626 349.232 351.862 350.169 350.3 351.464C348.781 352.759 347.464 354.121 346.348 355.55Z" fill="white"/>
<path d="M395.158 343.025C396.051 343.025 397.078 343.292 398.239 343.828C399.4 344.364 400.427 345.056 401.32 345.905C401.097 344.119 400.807 342.444 400.449 340.881C400.137 339.273 399.645 337.621 398.976 335.924C398.35 334.227 397.502 332.374 396.43 330.365C395.359 328.355 394.019 326.055 392.411 323.465C392.545 323.063 392.835 322.595 393.282 322.059C393.773 321.523 394.309 321.032 394.89 320.585C395.515 320.094 396.14 319.67 396.765 319.312C397.435 318.955 398.06 318.732 398.641 318.643C399.891 320.027 401.074 321.768 402.191 323.867C403.307 325.921 404.29 328.154 405.138 330.566C405.987 332.932 406.634 335.388 407.081 337.934C407.572 340.479 407.817 342.913 407.817 345.235C407.817 347.557 407.55 349.946 407.014 352.402C406.522 354.858 405.808 357.27 404.87 359.636C403.977 361.959 402.928 364.169 401.722 366.268C400.516 368.367 399.199 370.242 397.77 371.894C396.386 373.547 394.934 374.886 393.416 375.913C391.898 376.985 390.379 377.655 388.861 377.923C385.78 377.566 383.413 376.561 381.761 374.909C380.153 373.301 379.349 371.068 379.349 368.21C379.349 366.692 379.573 365.04 380.019 363.254C380.511 361.467 381.136 359.703 381.895 357.962C382.699 356.176 383.614 354.456 384.641 352.804C385.713 351.107 386.829 349.589 387.99 348.249C389.196 346.91 390.402 345.771 391.607 344.833C392.813 343.895 393.997 343.292 395.158 343.025ZM388.325 375.244C389.888 374.708 391.451 373.524 393.014 371.694C394.577 369.863 395.984 367.719 397.234 365.263C398.484 362.762 399.489 360.105 400.248 357.292C401.052 354.434 401.454 351.688 401.454 349.053C401.454 348.294 401.454 347.825 401.454 347.646C401.454 347.468 401.432 347.289 401.387 347.111C400.315 347.557 399.177 348.316 397.971 349.388C396.765 350.46 395.559 351.71 394.354 353.139C393.148 354.523 392.009 356.042 390.938 357.694C389.866 359.346 388.906 360.998 388.057 362.651C387.209 364.303 386.539 365.888 386.048 367.407C385.557 368.925 385.311 370.265 385.311 371.426C385.311 373.658 386.316 374.931 388.325 375.244Z" fill="white"/>
<path d="M432.643 347.245C433.089 347.245 433.603 347.334 434.183 347.512C434.809 347.646 435.367 347.847 435.858 348.115C436.349 348.339 436.751 348.584 437.064 348.852C437.421 349.12 437.6 349.366 437.6 349.589C436.706 351.464 435.88 353.362 435.121 355.283C434.362 357.158 433.714 358.967 433.179 360.708C432.643 362.45 432.219 364.08 431.906 365.598C431.638 367.116 431.504 368.434 431.504 369.55C431.504 370.8 431.638 371.85 431.906 372.698C432.174 373.502 432.62 374.083 433.246 374.44C432.71 374.797 432.018 375.087 431.169 375.311C430.321 375.534 429.561 375.646 428.892 375.646C426.48 375.646 425.275 373.993 425.275 370.689C425.275 368.143 426.123 364.66 427.82 360.239C426.927 362.293 425.9 364.236 424.739 366.067C423.578 367.853 422.394 369.438 421.189 370.823C419.983 372.207 418.755 373.346 417.504 374.239C416.299 375.087 415.182 375.601 414.155 375.779C412.503 375.69 411.163 374.909 410.136 373.435C409.109 371.917 408.596 369.997 408.596 367.674C408.596 365.174 409.132 362.539 410.203 359.77C411.275 357.002 412.637 354.434 414.289 352.067C415.986 349.701 417.817 347.736 419.782 346.173C421.747 344.565 423.645 343.717 425.475 343.627C425.922 343.761 426.413 344.029 426.949 344.431C427.53 344.833 428.066 345.302 428.557 345.838C429.093 346.374 429.539 346.932 429.896 347.512C430.254 348.048 430.455 348.517 430.499 348.919C428.713 349.187 426.86 350.058 424.94 351.531C423.064 353.005 421.345 354.791 419.782 356.89C418.264 358.944 417.013 361.155 416.031 363.522C415.048 365.888 414.557 368.099 414.557 370.153C414.557 371.001 414.87 371.537 415.495 371.76C416.79 371.493 418.286 370.398 419.983 368.478C421.68 366.513 423.734 363.499 426.145 359.436C426.592 358.632 427.083 357.739 427.619 356.756C428.199 355.774 428.78 354.747 429.361 353.675C429.941 352.603 430.499 351.531 431.035 350.46C431.616 349.343 432.152 348.272 432.643 347.245Z" fill="white"/>
<path d="M459.236 370.488C459.236 368.88 459.481 366.804 459.973 364.258C460.508 361.668 461.178 358.9 461.982 355.952C462.831 352.96 463.791 349.924 464.862 346.843C465.934 343.717 467.028 340.792 468.145 338.068C469.261 335.344 470.355 332.955 471.427 330.901C472.498 328.846 473.459 327.373 474.307 326.48C474.754 326.524 475.334 326.703 476.049 327.015C476.808 327.283 477.567 327.618 478.326 328.02C479.085 328.422 479.777 328.869 480.403 329.36C481.028 329.806 481.43 330.231 481.608 330.633C480.313 331.794 479.018 333.558 477.723 335.924C476.473 338.246 475.245 340.903 474.039 343.895C472.878 346.887 471.784 350.058 470.757 353.407C469.73 356.712 468.837 359.927 468.078 363.053C467.318 366.179 466.716 369.081 466.269 371.76C465.867 374.44 465.666 376.606 465.666 378.258C465.666 379.017 465.733 379.486 465.867 379.665C464.885 379.62 464.17 379.441 463.724 379.129C463.277 378.861 462.92 378.548 462.652 378.191C462.429 377.878 462.205 377.543 461.982 377.186C461.803 376.874 461.513 376.628 461.111 376.449C460.799 376.315 460.531 376.003 460.307 375.512C460.084 375.02 459.883 374.484 459.705 373.904C459.571 373.279 459.459 372.654 459.37 372.028C459.28 371.403 459.236 370.89 459.236 370.488Z" fill="white"/>
<path d="M480.534 348.651C480.311 348.383 480.11 347.825 479.932 346.977C479.753 346.083 479.664 345.324 479.664 344.699C480.825 344.788 481.941 344.878 483.013 344.967C484.085 345.012 485.067 345.056 485.96 345.101C486.63 343.761 487.344 342.444 488.104 341.149C488.907 339.809 489.667 338.604 490.381 337.532C491.14 336.415 491.832 335.478 492.457 334.719C493.127 333.959 493.641 333.468 493.998 333.245C494.445 333.245 495.003 333.334 495.673 333.513C496.387 333.647 497.102 333.848 497.816 334.116C498.531 334.339 499.178 334.585 499.759 334.853C500.339 335.12 500.741 335.388 500.964 335.656C499.625 337.353 498.464 338.939 497.481 340.412C496.543 341.841 495.516 343.493 494.4 345.369C495.293 345.369 496.186 345.347 497.079 345.302C498.017 345.257 498.955 345.19 499.893 345.101C500.116 345.324 500.295 345.615 500.429 345.972C500.562 346.284 500.629 346.619 500.629 346.977C498.441 347.78 495.784 348.227 492.658 348.316C491.542 350.46 490.537 352.603 489.644 354.747C488.796 356.845 488.059 358.877 487.434 360.842C486.853 362.807 486.384 364.66 486.027 366.402C485.714 368.143 485.558 369.706 485.558 371.091C485.558 373.055 486.295 374.15 487.769 374.373C489.108 374.194 490.381 373.859 491.587 373.368C492.792 372.877 493.864 372.252 494.802 371.493C495.07 371.894 495.226 372.229 495.271 372.497C495.003 372.899 494.534 373.368 493.864 373.904C493.239 374.44 492.547 374.953 491.788 375.445C491.029 375.98 490.292 376.427 489.577 376.784C488.863 377.141 488.327 377.342 487.97 377.387C486.853 377.342 485.737 377.097 484.62 376.65C483.504 376.204 482.477 375.646 481.539 374.976C480.646 374.306 479.909 373.569 479.329 372.765C478.748 371.917 478.458 371.091 478.458 370.287C478.458 369.215 478.592 367.875 478.86 366.268C479.172 364.616 479.597 362.829 480.133 360.909C480.668 358.989 481.294 356.979 482.008 354.881C482.723 352.782 483.504 350.705 484.352 348.651H480.534Z" fill="white"/>
<path d="M523.241 347.245C523.687 347.245 524.201 347.334 524.781 347.512C525.406 347.646 525.965 347.847 526.456 348.115C526.947 348.339 527.349 348.584 527.661 348.852C528.019 349.12 528.197 349.366 528.197 349.589C527.304 351.464 526.478 353.362 525.719 355.283C524.96 357.158 524.312 358.967 523.776 360.708C523.241 362.45 522.816 364.08 522.504 365.598C522.236 367.116 522.102 368.434 522.102 369.55C522.102 370.8 522.236 371.85 522.504 372.698C522.772 373.502 523.218 374.083 523.843 374.44C523.308 374.797 522.615 375.087 521.767 375.311C520.919 375.534 520.159 375.646 519.49 375.646C517.078 375.646 515.872 373.993 515.872 370.689C515.872 368.143 516.721 364.66 518.418 360.239C517.525 362.293 516.498 364.236 515.337 366.067C514.175 367.853 512.992 369.438 511.786 370.823C510.581 372.207 509.353 373.346 508.102 374.239C506.897 375.087 505.78 375.601 504.753 375.779C503.101 375.69 501.761 374.909 500.734 373.435C499.707 371.917 499.194 369.997 499.194 367.674C499.194 365.174 499.729 362.539 500.801 359.77C501.873 357.002 503.235 354.434 504.887 352.067C506.584 349.701 508.415 347.736 510.38 346.173C512.345 344.565 514.242 343.717 516.073 343.627C516.52 343.761 517.011 344.029 517.547 344.431C518.128 344.833 518.663 345.302 519.155 345.838C519.69 346.374 520.137 346.932 520.494 347.512C520.852 348.048 521.052 348.517 521.097 348.919C519.311 349.187 517.458 350.058 515.537 351.531C513.662 353.005 511.943 354.791 510.38 356.89C508.861 358.944 507.611 361.155 506.629 363.522C505.646 365.888 505.155 368.099 505.155 370.153C505.155 371.001 505.468 371.537 506.093 371.76C507.388 371.493 508.884 370.398 510.581 368.478C512.278 366.513 514.332 363.499 516.743 359.436C517.19 358.632 517.681 357.739 518.217 356.756C518.797 355.774 519.378 354.747 519.958 353.675C520.539 352.603 521.097 351.531 521.633 350.46C522.214 349.343 522.749 348.272 523.241 347.245ZM531.011 325.475C531.457 325.743 531.904 326.189 532.35 326.815C532.842 327.395 533.266 328.065 533.623 328.824C534.025 329.539 534.338 330.275 534.561 331.034C534.784 331.794 534.896 332.486 534.896 333.111C533.199 334.272 531.703 335.232 530.408 335.991C529.157 336.75 528.019 337.376 526.992 337.867C526.009 338.313 525.138 338.648 524.379 338.872C523.62 339.05 522.883 339.139 522.169 339.139C520.74 339.139 519.512 338.715 518.485 337.867C519.467 337.51 520.494 336.951 521.566 336.192C522.638 335.433 523.709 334.518 524.781 333.446C525.898 332.374 526.969 331.168 527.996 329.829C529.068 328.489 530.073 327.038 531.011 325.475Z" fill="white"/>
<path d="M531.528 370.019C531.528 368.054 531.997 365.308 532.935 361.78C533.873 358.207 535.19 354.054 536.887 349.321C539.656 341.774 542.246 335.5 544.657 330.499C547.113 325.453 549.502 321.523 551.824 318.71C552.36 318.799 553.008 319.022 553.767 319.379C554.571 319.737 555.352 320.138 556.111 320.585C556.87 320.987 557.54 321.411 558.121 321.858C558.746 322.304 559.148 322.662 559.326 322.929C555.843 327.038 552.784 331.459 550.15 336.192C547.515 340.926 545.104 346.351 542.915 352.469C541.04 357.739 539.611 362.494 538.628 366.737C537.646 370.934 537.155 374.44 537.155 377.253C537.155 378.012 537.155 378.481 537.155 378.66C537.155 378.838 537.177 379.017 537.222 379.196C536.597 379.106 536.061 378.95 535.614 378.727C535.168 378.503 534.877 378.236 534.743 377.923C534.654 377.7 534.409 377.365 534.007 376.918C533.605 376.516 533.247 376.204 532.935 375.98C532.533 375.713 532.198 375.02 531.93 373.904C531.662 372.743 531.528 371.448 531.528 370.019Z" fill="white"/>
<path d="M547.492 369.818C547.492 369.416 547.515 368.925 547.559 368.344C547.649 367.719 547.783 366.915 547.961 365.933C548.14 364.906 548.363 363.678 548.631 362.249C548.944 360.82 549.323 359.101 549.77 357.091C549.859 356.645 550.06 355.93 550.373 354.948C550.685 353.965 551.087 352.938 551.578 351.866C552.114 350.75 552.739 349.678 553.454 348.651C554.213 347.624 555.106 346.865 556.133 346.374C556.892 346.552 557.897 347.021 559.147 347.78C560.398 348.495 561.469 349.5 562.363 350.795C561.336 351.956 560.465 353.117 559.75 354.278C559.08 355.439 558.455 356.645 557.875 357.895C557.339 359.145 556.825 360.44 556.334 361.78C555.888 363.12 555.374 364.526 554.794 366C554.302 367.25 553.856 368.545 553.454 369.885C553.052 371.18 552.829 372.319 552.784 373.301C552.784 374.105 552.762 374.663 552.717 374.976C552.717 375.333 552.605 375.512 552.382 375.512C552.203 375.512 551.846 375.4 551.31 375.177C550.774 374.953 550.216 374.618 549.636 374.172C549.1 373.681 548.609 373.078 548.162 372.363C547.716 371.649 547.492 370.8 547.492 369.818ZM560.286 340.747C560.286 340.479 560.353 340.077 560.487 339.541C560.264 339.318 560.063 338.983 559.884 338.537C559.75 338.09 559.683 337.688 559.683 337.331C559.683 336.929 559.728 336.393 559.817 335.723C559.951 335.009 560.108 334.25 560.286 333.446C560.465 332.642 560.688 331.816 560.956 330.967C561.224 330.074 561.492 329.271 561.76 328.556C562.296 328.556 562.943 328.712 563.702 329.025C564.506 329.293 565.31 329.672 566.114 330.164C566.918 330.61 567.654 331.124 568.324 331.704C568.994 332.24 569.508 332.754 569.865 333.245C569.374 333.736 568.726 334.428 567.922 335.321C567.118 336.17 566.337 337.085 565.578 338.068C564.819 339.006 564.127 339.899 563.501 340.747C562.876 341.596 562.474 342.198 562.296 342.556C561.76 342.466 561.291 342.243 560.889 341.886C560.487 341.484 560.286 341.104 560.286 340.747Z" fill="white"/>
<path d="M586.365 347.245C586.811 347.245 587.325 347.334 587.905 347.512C588.531 347.646 589.089 347.847 589.58 348.115C590.071 348.339 590.473 348.584 590.786 348.852C591.143 349.12 591.322 349.366 591.322 349.589C590.428 351.464 589.602 353.362 588.843 355.283C588.084 357.158 587.436 358.967 586.901 360.708C586.365 362.45 585.941 364.08 585.628 365.598C585.36 367.116 585.226 368.434 585.226 369.55C585.226 370.8 585.36 371.85 585.628 372.698C585.896 373.502 586.342 374.083 586.968 374.44C586.432 374.797 585.74 375.087 584.891 375.311C584.043 375.534 583.283 375.646 582.614 375.646C580.202 375.646 578.997 373.993 578.997 370.689C578.997 368.143 579.845 364.66 581.542 360.239C580.649 362.293 579.622 364.236 578.461 366.067C577.3 367.853 576.116 369.438 574.911 370.823C573.705 372.207 572.477 373.346 571.226 374.239C570.021 375.087 568.904 375.601 567.877 375.779C566.225 375.69 564.885 374.909 563.858 373.435C562.831 371.917 562.318 369.997 562.318 367.674C562.318 365.174 562.853 362.539 563.925 359.77C564.997 357.002 566.359 354.434 568.011 352.067C569.708 349.701 571.539 347.736 573.504 346.173C575.469 344.565 577.367 343.717 579.198 343.627C579.644 343.761 580.135 344.029 580.671 344.431C581.252 344.833 581.788 345.302 582.279 345.838C582.815 346.374 583.261 346.932 583.618 347.512C583.976 348.048 584.177 348.517 584.221 348.919C582.435 349.187 580.582 350.058 578.662 351.531C576.786 353.005 575.067 354.791 573.504 356.89C571.986 358.944 570.735 361.155 569.753 363.522C568.77 365.888 568.279 368.099 568.279 370.153C568.279 371.001 568.592 371.537 569.217 371.76C570.512 371.493 572.008 370.398 573.705 368.478C575.402 366.513 577.456 363.499 579.867 359.436C580.314 358.632 580.805 357.739 581.341 356.756C581.921 355.774 582.502 354.747 583.083 353.675C583.663 352.603 584.221 351.531 584.757 350.46C585.338 349.343 585.874 348.272 586.365 347.245Z" fill="white"/>
<path d="M37.0684 64.0104C38.6168 66.6736 39.391 69.2439 39.391 71.7213C39.391 72.2787 39.329 72.7742 39.2052 73.2078C39.1432 73.7033 39.0503 74.1987 38.9265 74.6942C37.8736 74.5704 36.7587 74.4774 35.582 74.4155C34.4671 74.3536 33.2903 74.3226 32.0516 74.3226C30.5652 74.3226 29.0478 74.3536 27.4994 74.4155C26.0129 74.5394 24.3407 74.6942 22.4826 74.88C20.6245 75.0658 18.5497 75.3136 16.2581 75.6233C13.9665 75.9329 11.3032 76.3355 8.26839 76.831C6.84387 76.3355 5.41936 75.3445 3.99484 73.8581C2.57032 72.4336 1.23871 70.6994 0 68.6555C0.619355 67.2929 1.39355 65.6207 2.32258 63.6387C3.25161 61.5949 4.33549 59.1484 5.5742 56.2994C6.81291 53.3884 8.17549 50.0129 9.66194 46.1729C11.2103 42.271 12.8516 37.7807 14.5858 32.702C15.7007 29.3574 16.6607 26.4155 17.4658 23.8761C18.271 21.3368 18.9832 18.8903 19.6026 16.5368C20.2839 14.1213 20.9342 11.6129 21.5536 9.01162C22.1729 6.41033 22.8542 3.40645 23.5974 0C26.0749 0.495485 28.2116 1.42452 30.0078 2.7871C31.8658 4.08774 33.631 5.97678 35.3032 8.4542C34.8078 9.25936 34.1574 10.56 33.3523 12.3561C32.5471 14.1523 31.5871 16.351 30.4723 18.9523C29.4194 21.4916 28.2426 24.4026 26.9419 27.6852C25.6413 30.9058 24.2787 34.3742 22.8542 38.0903C21.4916 41.7445 20.16 45.182 18.8594 48.4026C17.5587 51.6232 16.3819 54.5342 15.329 57.1355C14.3381 59.7368 13.5329 61.9665 12.9136 63.8245C12.2942 65.6826 11.9845 67.0762 11.9845 68.0052C12.9755 67.9433 13.8736 67.8813 14.6787 67.8194C15.4839 67.7574 16.32 67.6645 17.1871 67.5407C18.0542 67.3549 18.9832 67.1691 19.9742 66.9833C21.0271 66.7355 22.2658 66.4258 23.6903 66.0542C24.929 65.7445 26.0748 65.4968 27.1278 65.311C28.1807 65.0633 29.2026 64.8774 30.1936 64.7536C31.2465 64.5678 32.2994 64.4439 33.3523 64.382C34.4671 64.2581 35.7058 64.1342 37.0684 64.0104Z" fill="white"/>
<path d="M77.6461 31.7729C78.2654 31.7729 78.9777 31.8968 79.7829 32.1445C80.6499 32.3303 81.4241 32.609 82.1054 32.9807C82.7867 33.2903 83.3441 33.631 83.7777 34.0026C84.2732 34.3742 84.5209 34.7149 84.5209 35.0245C83.2822 37.6258 82.1364 40.2581 81.0835 42.9213C80.0306 45.5226 79.1325 48.031 78.3893 50.4465C77.6461 52.862 77.0577 55.1226 76.6241 57.2284C76.2525 59.3342 76.0667 61.1613 76.0667 62.7097C76.0667 64.4439 76.2525 65.8994 76.6241 67.0762C76.9957 68.191 77.6151 68.9962 78.4822 69.4916C77.739 69.9871 76.779 70.3897 75.6022 70.6994C74.4254 71.0091 73.3725 71.1639 72.4435 71.1639C69.099 71.1639 67.4267 68.8723 67.4267 64.2891C67.4267 60.7587 68.6035 55.9278 70.957 49.7962C69.7183 52.6452 68.2938 55.3394 66.6835 57.8787C65.0732 60.3562 63.4319 62.5549 61.7596 64.4749C60.0874 66.3949 58.3841 67.9742 56.6499 69.2129C54.9777 70.3897 53.4293 71.102 52.0048 71.3497C49.7132 71.2258 47.8551 70.142 46.4306 68.0981C45.0061 65.9923 44.2938 63.3291 44.2938 60.1084C44.2938 56.64 45.037 52.9858 46.5235 49.1458C48.0099 45.3058 49.899 41.7445 52.1906 38.462C54.5441 35.1794 57.0835 32.4542 59.8087 30.2865C62.5338 28.0568 65.1661 26.88 67.7054 26.7561C68.3248 26.9419 69.0061 27.3136 69.7493 27.871C70.5545 28.4284 71.2977 29.0787 71.979 29.8219C72.7222 30.5652 73.3416 31.3394 73.837 32.1445C74.3325 32.8878 74.6112 33.5381 74.6732 34.0955C72.1958 34.4671 69.6254 35.6749 66.9622 37.7187C64.3609 39.7626 61.9764 42.24 59.8087 45.151C57.7028 48 55.9686 51.0658 54.6061 54.3484C53.2435 57.631 52.5622 60.6968 52.5622 63.5458C52.5622 64.7226 52.9957 65.4658 53.8628 65.7755C55.659 65.4039 57.7338 63.8865 60.0874 61.2233C62.4409 58.4981 65.2899 54.3174 68.6345 48.6813C69.2538 47.5665 69.9351 46.3278 70.6783 44.9652C71.4835 43.6026 72.2887 42.1781 73.0938 40.6916C73.899 39.2052 74.6732 37.7187 75.4164 36.2323C76.2216 34.6839 76.9648 33.1974 77.6461 31.7729Z" fill="white"/>
</g>
<defs>
<clipPath id="clip0_299353_2220">
<rect width="596" height="394" fill="white"/>
</clipPath>
</defs>
</svg>
